<svg width="389" height="275" viewBox="0 0 389 275" fill="none" xmlns="http://www.w3.org/2000/svg">
<path d="M162 82C162 64.3269 176.327 50 194 50C211.673 50 226 64.3269 226 82C226 99.6731 211.673 114 194 114C176.327 114 162 99.6731 162 82Z" fill="#575445"/>
<path d="M205.527 71.9878H189.24C188.493 70.3229 186.813 69.1667 184.853 69.1667C182.147 69.213 180 71.3403 180 73.9764V90.0238C180 92.6598 182.147 94.8334 184.853 94.8334H184.9H205.527C206.927 94.8334 208 93.7235 208 92.3824V74.4851C208 73.0977 206.88 71.9878 205.527 71.9878ZM180.933 73.9764C180.933 71.849 182.66 70.0917 184.853 70.0917C187.047 70.0917 188.773 71.8028 188.773 73.9764V87.2028C187.887 86.0004 186.487 85.2142 184.853 85.2142C183.267 85.2142 181.82 86.0004 180.933 87.2028V73.9764ZM180.933 90.07C180.933 87.9427 182.66 86.1854 184.853 86.1854C187.047 86.1854 188.773 87.8965 188.773 90.07C188.773 92.2436 187.047 93.9547 184.853 93.9547C182.66 93.9547 180.933 92.1974 180.933 90.07ZM207.067 92.3824C207.067 93.2148 206.367 93.9085 205.527 93.9085H187.7C188.913 93.0298 189.707 91.6424 189.707 90.0238V73.9764C189.707 73.6064 189.66 73.2364 189.567 72.9127H205.527C206.367 72.9127 207.067 73.6064 207.067 74.4851V92.3824Z" fill="white"/>
<path d="M116.883 137.424H113.084V135.891H116.883C117.618 135.891 118.214 135.773 118.67 135.539C119.126 135.305 119.458 134.979 119.666 134.562C119.881 134.146 119.988 133.671 119.988 133.137C119.988 132.648 119.881 132.189 119.666 131.76C119.458 131.33 119.126 130.985 118.67 130.725C118.214 130.458 117.618 130.324 116.883 130.324H113.523V143H111.639V128.781H116.883C117.957 128.781 118.865 128.967 119.607 129.338C120.35 129.709 120.913 130.223 121.297 130.881C121.681 131.532 121.873 132.277 121.873 133.117C121.873 134.029 121.681 134.807 121.297 135.451C120.913 136.096 120.35 136.587 119.607 136.926C118.865 137.258 117.957 137.424 116.883 137.424ZM125.789 134.094V143H123.982V132.434H125.74L125.789 134.094ZM129.09 132.375L129.08 134.055C128.93 134.022 128.787 134.003 128.65 133.996C128.52 133.983 128.37 133.977 128.201 133.977C127.785 133.977 127.417 134.042 127.098 134.172C126.779 134.302 126.508 134.484 126.287 134.719C126.066 134.953 125.89 135.233 125.76 135.559C125.636 135.878 125.555 136.229 125.516 136.613L125.008 136.906C125.008 136.268 125.07 135.669 125.193 135.109C125.324 134.549 125.522 134.055 125.789 133.625C126.056 133.189 126.395 132.85 126.805 132.609C127.221 132.362 127.716 132.238 128.289 132.238C128.419 132.238 128.569 132.255 128.738 132.287C128.908 132.313 129.025 132.342 129.09 132.375ZM134.949 143.195C134.214 143.195 133.546 143.072 132.947 142.824C132.355 142.57 131.844 142.215 131.414 141.76C130.991 141.304 130.665 140.764 130.438 140.139C130.21 139.514 130.096 138.83 130.096 138.088V137.678C130.096 136.818 130.223 136.053 130.477 135.383C130.73 134.706 131.076 134.133 131.512 133.664C131.948 133.195 132.443 132.84 132.996 132.6C133.549 132.359 134.122 132.238 134.715 132.238C135.47 132.238 136.121 132.368 136.668 132.629C137.221 132.889 137.674 133.254 138.025 133.723C138.377 134.185 138.637 134.732 138.807 135.363C138.976 135.988 139.061 136.672 139.061 137.414V138.225H131.17V136.75H137.254V136.613C137.228 136.145 137.13 135.689 136.961 135.246C136.798 134.803 136.538 134.439 136.18 134.152C135.822 133.866 135.333 133.723 134.715 133.723C134.305 133.723 133.927 133.811 133.582 133.986C133.237 134.156 132.941 134.41 132.693 134.748C132.446 135.087 132.254 135.5 132.117 135.988C131.98 136.477 131.912 137.04 131.912 137.678V138.088C131.912 138.589 131.98 139.061 132.117 139.504C132.26 139.94 132.465 140.324 132.732 140.656C133.006 140.988 133.335 141.249 133.719 141.438C134.109 141.626 134.552 141.721 135.047 141.721C135.685 141.721 136.225 141.59 136.668 141.33C137.111 141.07 137.498 140.721 137.83 140.285L138.924 141.154C138.696 141.499 138.406 141.828 138.055 142.141C137.703 142.453 137.27 142.707 136.756 142.902C136.248 143.098 135.646 143.195 134.949 143.195ZM142.967 134.533V143H141.15V132.434H142.869L142.967 134.533ZM142.596 137.316L141.756 137.287C141.762 136.564 141.857 135.897 142.039 135.285C142.221 134.667 142.492 134.13 142.85 133.674C143.208 133.218 143.654 132.867 144.188 132.619C144.721 132.365 145.34 132.238 146.043 132.238C146.538 132.238 146.993 132.31 147.41 132.453C147.827 132.59 148.188 132.808 148.494 133.107C148.8 133.407 149.038 133.791 149.207 134.26C149.376 134.729 149.461 135.295 149.461 135.959V143H147.654V136.047C147.654 135.493 147.56 135.051 147.371 134.719C147.189 134.387 146.928 134.146 146.59 133.996C146.251 133.84 145.854 133.762 145.398 133.762C144.865 133.762 144.419 133.856 144.061 134.045C143.702 134.234 143.416 134.494 143.201 134.826C142.986 135.158 142.83 135.539 142.732 135.969C142.641 136.392 142.596 136.841 142.596 137.316ZM149.441 136.32L148.23 136.691C148.237 136.112 148.331 135.555 148.514 135.021C148.702 134.488 148.973 134.012 149.324 133.596C149.682 133.179 150.122 132.85 150.643 132.609C151.163 132.362 151.759 132.238 152.43 132.238C152.996 132.238 153.497 132.313 153.934 132.463C154.376 132.613 154.747 132.844 155.047 133.156C155.353 133.462 155.584 133.856 155.74 134.338C155.896 134.82 155.975 135.393 155.975 136.057V143H154.158V136.037C154.158 135.445 154.064 134.986 153.875 134.66C153.693 134.328 153.432 134.097 153.094 133.967C152.762 133.83 152.365 133.762 151.902 133.762C151.505 133.762 151.154 133.83 150.848 133.967C150.542 134.104 150.285 134.292 150.076 134.533C149.868 134.768 149.708 135.038 149.598 135.344C149.493 135.65 149.441 135.975 149.441 136.32ZM160.672 132.434V143H158.855V132.434H160.672ZM158.719 129.631C158.719 129.338 158.807 129.09 158.982 128.889C159.165 128.687 159.432 128.586 159.783 128.586C160.128 128.586 160.392 128.687 160.574 128.889C160.763 129.09 160.857 129.338 160.857 129.631C160.857 129.911 160.763 130.152 160.574 130.354C160.392 130.549 160.128 130.646 159.783 130.646C159.432 130.646 159.165 130.549 158.982 130.354C158.807 130.152 158.719 129.911 158.719 129.631ZM170.037 140.559V132.434H171.854V143H170.125L170.037 140.559ZM170.379 138.332L171.131 138.312C171.131 139.016 171.056 139.667 170.906 140.266C170.763 140.858 170.529 141.372 170.203 141.809C169.878 142.245 169.451 142.587 168.924 142.834C168.396 143.075 167.755 143.195 167 143.195C166.486 143.195 166.014 143.12 165.584 142.971C165.161 142.821 164.796 142.59 164.49 142.277C164.184 141.965 163.947 141.558 163.777 141.057C163.615 140.555 163.533 139.953 163.533 139.25V132.434H165.34V139.27C165.34 139.745 165.392 140.139 165.496 140.451C165.607 140.757 165.753 141.001 165.936 141.184C166.124 141.359 166.333 141.483 166.561 141.555C166.795 141.626 167.036 141.662 167.283 141.662C168.051 141.662 168.66 141.516 169.109 141.223C169.559 140.923 169.881 140.523 170.076 140.021C170.278 139.514 170.379 138.951 170.379 138.332ZM176.404 134.533V143H174.588V132.434H176.307L176.404 134.533ZM176.033 137.316L175.193 137.287C175.2 136.564 175.294 135.897 175.477 135.285C175.659 134.667 175.929 134.13 176.287 133.674C176.645 133.218 177.091 132.867 177.625 132.619C178.159 132.365 178.777 132.238 179.48 132.238C179.975 132.238 180.431 132.31 180.848 132.453C181.264 132.59 181.626 132.808 181.932 133.107C182.238 133.407 182.475 133.791 182.645 134.26C182.814 134.729 182.898 135.295 182.898 135.959V143H181.092V136.047C181.092 135.493 180.997 135.051 180.809 134.719C180.626 134.387 180.366 134.146 180.027 133.996C179.689 133.84 179.292 133.762 178.836 133.762C178.302 133.762 177.856 133.856 177.498 134.045C177.14 134.234 176.854 134.494 176.639 134.826C176.424 135.158 176.268 135.539 176.17 135.969C176.079 136.392 176.033 136.841 176.033 137.316ZM182.879 136.32L181.668 136.691C181.674 136.112 181.769 135.555 181.951 135.021C182.14 134.488 182.41 134.012 182.762 133.596C183.12 133.179 183.559 132.85 184.08 132.609C184.601 132.362 185.197 132.238 185.867 132.238C186.434 132.238 186.935 132.313 187.371 132.463C187.814 132.613 188.185 132.844 188.484 133.156C188.79 133.462 189.021 133.856 189.178 134.338C189.334 134.82 189.412 135.393 189.412 136.057V143H187.596V136.037C187.596 135.445 187.501 134.986 187.312 134.66C187.13 134.328 186.87 134.097 186.531 133.967C186.199 133.83 185.802 133.762 185.34 133.762C184.943 133.762 184.591 133.83 184.285 133.967C183.979 134.104 183.722 134.292 183.514 134.533C183.305 134.768 183.146 135.038 183.035 135.344C182.931 135.65 182.879 135.975 182.879 136.32ZM198.904 134.533V143H197.088V132.434H198.807L198.904 134.533ZM198.533 137.316L197.693 137.287C197.7 136.564 197.794 135.897 197.977 135.285C198.159 134.667 198.429 134.13 198.787 133.674C199.145 133.218 199.591 132.867 200.125 132.619C200.659 132.365 201.277 132.238 201.98 132.238C202.475 132.238 202.931 132.31 203.348 132.453C203.764 132.59 204.126 132.808 204.432 133.107C204.738 133.407 204.975 133.791 205.145 134.26C205.314 134.729 205.398 135.295 205.398 135.959V143H203.592V136.047C203.592 135.493 203.497 135.051 203.309 134.719C203.126 134.387 202.866 134.146 202.527 133.996C202.189 133.84 201.792 133.762 201.336 133.762C200.802 133.762 200.356 133.856 199.998 134.045C199.64 134.234 199.354 134.494 199.139 134.826C198.924 135.158 198.768 135.539 198.67 135.969C198.579 136.392 198.533 136.841 198.533 137.316ZM205.379 136.32L204.168 136.691C204.174 136.112 204.269 135.555 204.451 135.021C204.64 134.488 204.91 134.012 205.262 133.596C205.62 133.179 206.059 132.85 206.58 132.609C207.101 132.362 207.697 132.238 208.367 132.238C208.934 132.238 209.435 132.313 209.871 132.463C210.314 132.613 210.685 132.844 210.984 133.156C211.29 133.462 211.521 133.856 211.678 134.338C211.834 134.82 211.912 135.393 211.912 136.057V143H210.096V136.037C210.096 135.445 210.001 134.986 209.812 134.66C209.63 134.328 209.37 134.097 209.031 133.967C208.699 133.83 208.302 133.762 207.84 133.762C207.443 133.762 207.091 133.83 206.785 133.967C206.479 134.104 206.222 134.292 206.014 134.533C205.805 134.768 205.646 135.038 205.535 135.344C205.431 135.65 205.379 135.975 205.379 136.32ZM220.877 141.193V135.754C220.877 135.337 220.792 134.976 220.623 134.67C220.46 134.357 220.213 134.117 219.881 133.947C219.549 133.778 219.139 133.693 218.65 133.693C218.195 133.693 217.794 133.771 217.449 133.928C217.111 134.084 216.844 134.289 216.648 134.543C216.46 134.797 216.365 135.07 216.365 135.363H214.559C214.559 134.986 214.656 134.611 214.852 134.24C215.047 133.869 215.327 133.534 215.691 133.234C216.062 132.928 216.505 132.688 217.02 132.512C217.54 132.329 218.12 132.238 218.758 132.238C219.526 132.238 220.203 132.368 220.789 132.629C221.382 132.889 221.844 133.283 222.176 133.811C222.514 134.331 222.684 134.986 222.684 135.773V140.695C222.684 141.047 222.713 141.421 222.771 141.818C222.837 142.215 222.931 142.557 223.055 142.844V143H221.17C221.079 142.792 221.007 142.515 220.955 142.17C220.903 141.818 220.877 141.493 220.877 141.193ZM221.189 136.594L221.209 137.863H219.383C218.868 137.863 218.41 137.906 218.006 137.99C217.602 138.068 217.264 138.189 216.99 138.352C216.717 138.514 216.508 138.719 216.365 138.967C216.222 139.208 216.15 139.491 216.15 139.816C216.15 140.148 216.225 140.451 216.375 140.725C216.525 140.998 216.749 141.216 217.049 141.379C217.355 141.535 217.729 141.613 218.172 141.613C218.725 141.613 219.214 141.496 219.637 141.262C220.06 141.027 220.395 140.741 220.643 140.402C220.896 140.064 221.033 139.735 221.053 139.416L221.824 140.285C221.779 140.559 221.655 140.861 221.453 141.193C221.251 141.525 220.981 141.844 220.643 142.15C220.311 142.45 219.913 142.701 219.451 142.902C218.995 143.098 218.481 143.195 217.908 143.195C217.192 143.195 216.564 143.055 216.023 142.775C215.49 142.495 215.073 142.121 214.773 141.652C214.48 141.177 214.334 140.646 214.334 140.061C214.334 139.494 214.445 138.996 214.666 138.566C214.887 138.13 215.206 137.769 215.623 137.482C216.04 137.189 216.541 136.968 217.127 136.818C217.713 136.669 218.367 136.594 219.09 136.594H221.189ZM229.949 132.434V133.82H224.236V132.434H229.949ZM226.17 129.865H227.977V140.383C227.977 140.741 228.032 141.011 228.143 141.193C228.253 141.376 228.396 141.496 228.572 141.555C228.748 141.613 228.937 141.643 229.139 141.643C229.288 141.643 229.445 141.63 229.607 141.604C229.777 141.571 229.904 141.545 229.988 141.525L229.998 143C229.855 143.046 229.666 143.088 229.432 143.127C229.204 143.173 228.927 143.195 228.602 143.195C228.159 143.195 227.752 143.107 227.381 142.932C227.01 142.756 226.714 142.463 226.492 142.053C226.277 141.636 226.17 141.076 226.17 140.373V129.865ZM236.453 143.195C235.717 143.195 235.05 143.072 234.451 142.824C233.859 142.57 233.348 142.215 232.918 141.76C232.495 141.304 232.169 140.764 231.941 140.139C231.714 139.514 231.6 138.83 231.6 138.088V137.678C231.6 136.818 231.727 136.053 231.98 135.383C232.234 134.706 232.579 134.133 233.016 133.664C233.452 133.195 233.947 132.84 234.5 132.6C235.053 132.359 235.626 132.238 236.219 132.238C236.974 132.238 237.625 132.368 238.172 132.629C238.725 132.889 239.178 133.254 239.529 133.723C239.881 134.185 240.141 134.732 240.311 135.363C240.48 135.988 240.564 136.672 240.564 137.414V138.225H232.674V136.75H238.758V136.613C238.732 136.145 238.634 135.689 238.465 135.246C238.302 134.803 238.042 134.439 237.684 134.152C237.326 133.866 236.837 133.723 236.219 133.723C235.809 133.723 235.431 133.811 235.086 133.986C234.741 134.156 234.445 134.41 234.197 134.748C233.95 135.087 233.758 135.5 233.621 135.988C233.484 136.477 233.416 137.04 233.416 137.678V138.088C233.416 138.589 233.484 139.061 233.621 139.504C233.764 139.94 233.969 140.324 234.236 140.656C234.51 140.988 234.839 141.249 235.223 141.438C235.613 141.626 236.056 141.721 236.551 141.721C237.189 141.721 237.729 141.59 238.172 141.33C238.615 141.07 239.002 140.721 239.334 140.285L240.428 141.154C240.2 141.499 239.91 141.828 239.559 142.141C239.207 142.453 238.774 142.707 238.26 142.902C237.752 143.098 237.15 143.195 236.453 143.195ZM244.48 134.094V143H242.674V132.434H244.432L244.48 134.094ZM247.781 132.375L247.771 134.055C247.622 134.022 247.479 134.003 247.342 133.996C247.212 133.983 247.062 133.977 246.893 133.977C246.476 133.977 246.108 134.042 245.789 134.172C245.47 134.302 245.2 134.484 244.979 134.719C244.757 134.953 244.581 135.233 244.451 135.559C244.327 135.878 244.246 136.229 244.207 136.613L243.699 136.906C243.699 136.268 243.761 135.669 243.885 135.109C244.015 134.549 244.214 134.055 244.48 133.625C244.747 133.189 245.086 132.85 245.496 132.609C245.913 132.362 246.408 132.238 246.98 132.238C247.111 132.238 247.26 132.255 247.43 132.287C247.599 132.313 247.716 132.342 247.781 132.375ZM251.414 132.434V143H249.598V132.434H251.414ZM249.461 129.631C249.461 129.338 249.549 129.09 249.725 128.889C249.907 128.687 250.174 128.586 250.525 128.586C250.87 128.586 251.134 128.687 251.316 128.889C251.505 129.09 251.6 129.338 251.6 129.631C251.6 129.911 251.505 130.152 251.316 130.354C251.134 130.549 250.87 130.646 250.525 130.646C250.174 130.646 249.907 130.549 249.725 130.354C249.549 130.152 249.461 129.911 249.461 129.631ZM260.545 141.193V135.754C260.545 135.337 260.46 134.976 260.291 134.67C260.128 134.357 259.881 134.117 259.549 133.947C259.217 133.778 258.807 133.693 258.318 133.693C257.863 133.693 257.462 133.771 257.117 133.928C256.779 134.084 256.512 134.289 256.316 134.543C256.128 134.797 256.033 135.07 256.033 135.363H254.227C254.227 134.986 254.324 134.611 254.52 134.24C254.715 133.869 254.995 133.534 255.359 133.234C255.73 132.928 256.173 132.688 256.688 132.512C257.208 132.329 257.788 132.238 258.426 132.238C259.194 132.238 259.871 132.368 260.457 132.629C261.049 132.889 261.512 133.283 261.844 133.811C262.182 134.331 262.352 134.986 262.352 135.773V140.695C262.352 141.047 262.381 141.421 262.439 141.818C262.505 142.215 262.599 142.557 262.723 142.844V143H260.838C260.747 142.792 260.675 142.515 260.623 142.17C260.571 141.818 260.545 141.493 260.545 141.193ZM260.857 136.594L260.877 137.863H259.051C258.536 137.863 258.077 137.906 257.674 137.99C257.27 138.068 256.932 138.189 256.658 138.352C256.385 138.514 256.176 138.719 256.033 138.967C255.89 139.208 255.818 139.491 255.818 139.816C255.818 140.148 255.893 140.451 256.043 140.725C256.193 140.998 256.417 141.216 256.717 141.379C257.023 141.535 257.397 141.613 257.84 141.613C258.393 141.613 258.882 141.496 259.305 141.262C259.728 141.027 260.063 140.741 260.311 140.402C260.564 140.064 260.701 139.735 260.721 139.416L261.492 140.285C261.447 140.559 261.323 140.861 261.121 141.193C260.919 141.525 260.649 141.844 260.311 142.15C259.979 142.45 259.581 142.701 259.119 142.902C258.663 143.098 258.149 143.195 257.576 143.195C256.86 143.195 256.232 143.055 255.691 142.775C255.158 142.495 254.741 142.121 254.441 141.652C254.148 141.177 254.002 140.646 254.002 140.061C254.002 139.494 254.113 138.996 254.334 138.566C254.555 138.13 254.874 137.769 255.291 137.482C255.708 137.189 256.209 136.968 256.795 136.818C257.381 136.669 258.035 136.594 258.758 136.594H260.857ZM267.156 128V143H265.34V128H267.156ZM276.209 140.197C276.209 139.937 276.15 139.696 276.033 139.475C275.923 139.247 275.691 139.042 275.34 138.859C274.995 138.671 274.474 138.508 273.777 138.371C273.191 138.247 272.661 138.101 272.186 137.932C271.717 137.762 271.316 137.557 270.984 137.316C270.659 137.076 270.408 136.792 270.232 136.467C270.057 136.141 269.969 135.76 269.969 135.324C269.969 134.908 270.06 134.514 270.242 134.143C270.431 133.771 270.695 133.443 271.033 133.156C271.378 132.87 271.792 132.645 272.273 132.482C272.755 132.32 273.292 132.238 273.885 132.238C274.731 132.238 275.454 132.388 276.053 132.688C276.652 132.987 277.111 133.387 277.43 133.889C277.749 134.383 277.908 134.934 277.908 135.539H276.102C276.102 135.246 276.014 134.963 275.838 134.689C275.669 134.41 275.418 134.178 275.086 133.996C274.76 133.814 274.36 133.723 273.885 133.723C273.383 133.723 272.977 133.801 272.664 133.957C272.358 134.107 272.133 134.299 271.99 134.533C271.854 134.768 271.785 135.015 271.785 135.275C271.785 135.471 271.818 135.646 271.883 135.803C271.954 135.952 272.078 136.092 272.254 136.223C272.43 136.346 272.677 136.464 272.996 136.574C273.315 136.685 273.722 136.796 274.217 136.906C275.083 137.102 275.796 137.336 276.355 137.609C276.915 137.883 277.332 138.218 277.605 138.615C277.879 139.012 278.016 139.494 278.016 140.061C278.016 140.523 277.918 140.946 277.723 141.33C277.534 141.714 277.257 142.046 276.893 142.326C276.535 142.6 276.105 142.814 275.604 142.971C275.109 143.12 274.552 143.195 273.934 143.195C273.003 143.195 272.215 143.029 271.57 142.697C270.926 142.365 270.438 141.936 270.105 141.408C269.773 140.881 269.607 140.324 269.607 139.738H271.424C271.45 140.233 271.593 140.627 271.854 140.92C272.114 141.206 272.433 141.411 272.811 141.535C273.188 141.652 273.562 141.711 273.934 141.711C274.428 141.711 274.842 141.646 275.174 141.516C275.512 141.385 275.77 141.206 275.945 140.979C276.121 140.751 276.209 140.49 276.209 140.197Z" fill="#575445"/>
<path d="M55.9018 170.964H59.3178V172H54.6278V162.242H55.9018V170.964ZM64.0168 172.126C63.2981 172.126 62.6448 171.963 62.0568 171.636C61.4781 171.309 61.0208 170.847 60.6848 170.25C60.3581 169.643 60.1948 168.943 60.1948 168.15C60.1948 167.366 60.3628 166.675 60.6988 166.078C61.0441 165.471 61.5108 165.009 62.0988 164.692C62.6868 164.365 63.3448 164.202 64.0728 164.202C64.8008 164.202 65.4588 164.365 66.0468 164.692C66.6348 165.009 67.0968 165.467 67.4328 166.064C67.7781 166.661 67.9508 167.357 67.9508 168.15C67.9508 168.943 67.7734 169.643 67.4188 170.25C67.0734 170.847 66.6021 171.309 66.0048 171.636C65.4074 171.963 64.7448 172.126 64.0168 172.126ZM64.0168 171.006C64.4741 171.006 64.9034 170.899 65.3048 170.684C65.7061 170.469 66.0281 170.147 66.2708 169.718C66.5228 169.289 66.6488 168.766 66.6488 168.15C66.6488 167.534 66.5274 167.011 66.2848 166.582C66.0421 166.153 65.7248 165.835 65.3328 165.63C64.9408 165.415 64.5161 165.308 64.0588 165.308C63.5921 165.308 63.1628 165.415 62.7708 165.63C62.3881 165.835 62.0801 166.153 61.8468 166.582C61.6134 167.011 61.4968 167.534 61.4968 168.15C61.4968 168.775 61.6088 169.303 61.8328 169.732C62.0661 170.161 62.3741 170.483 62.7568 170.698C63.1394 170.903 63.5594 171.006 64.0168 171.006ZM70.8999 165.574C71.1239 165.135 71.4412 164.795 71.8519 164.552C72.2719 164.309 72.7805 164.188 73.3779 164.188V165.504H73.0419C71.6139 165.504 70.8999 166.279 70.8999 167.828V172H69.6259V164.328H70.8999V165.574ZM81.8485 167.87C81.8485 168.113 81.8345 168.369 81.8065 168.64H75.6745C75.7212 169.396 75.9778 169.989 76.4445 170.418C76.9205 170.838 77.4945 171.048 78.1665 171.048C78.7172 171.048 79.1745 170.922 79.5385 170.67C79.9118 170.409 80.1732 170.063 80.3225 169.634H81.6945C81.4892 170.371 81.0785 170.973 80.4625 171.44C79.8465 171.897 79.0812 172.126 78.1665 172.126C77.4385 172.126 76.7852 171.963 76.2065 171.636C75.6372 171.309 75.1892 170.847 74.8625 170.25C74.5358 169.643 74.3725 168.943 74.3725 168.15C74.3725 167.357 74.5312 166.661 74.8485 166.064C75.1658 165.467 75.6092 165.009 76.1785 164.692C76.7572 164.365 77.4198 164.202 78.1665 164.202C78.8945 164.202 79.5385 164.361 80.0985 164.678C80.6585 164.995 81.0878 165.434 81.3865 165.994C81.6945 166.545 81.8485 167.17 81.8485 167.87ZM80.5325 167.604C80.5325 167.119 80.4252 166.703 80.2105 166.358C79.9958 166.003 79.7018 165.737 79.3285 165.56C78.9645 165.373 78.5585 165.28 78.1105 165.28C77.4665 165.28 76.9158 165.485 76.4585 165.896C76.0105 166.307 75.7538 166.876 75.6885 167.604H80.5325ZM92.7561 164.188C93.3535 164.188 93.8855 164.314 94.3521 164.566C94.8188 164.809 95.1875 165.177 95.4581 165.672C95.7288 166.167 95.8641 166.769 95.8641 167.478V172H94.6041V167.66C94.6041 166.895 94.4128 166.311 94.0301 165.91C93.6568 165.499 93.1481 165.294 92.5041 165.294C91.8415 165.294 91.3141 165.509 90.9221 165.938C90.5301 166.358 90.3341 166.969 90.3341 167.772V172H89.0741V167.66C89.0741 166.895 88.8828 166.311 88.5001 165.91C88.1268 165.499 87.6181 165.294 86.9741 165.294C86.3115 165.294 85.7841 165.509 85.3921 165.938C85.0001 166.358 84.8041 166.969 84.8041 167.772V172H83.5301V164.328H84.8041V165.434C85.0561 165.033 85.3921 164.725 85.8121 164.51C86.2415 164.295 86.7128 164.188 87.2261 164.188C87.8701 164.188 88.4395 164.333 88.9341 164.622C89.4288 164.911 89.7975 165.336 90.0401 165.896C90.2548 165.355 90.6095 164.935 91.1041 164.636C91.5988 164.337 92.1495 164.188 92.7561 164.188ZM102.344 163.082C102.102 163.082 101.896 162.998 101.728 162.83C101.56 162.662 101.476 162.457 101.476 162.214C101.476 161.971 101.56 161.766 101.728 161.598C101.896 161.43 102.102 161.346 102.344 161.346C102.578 161.346 102.774 161.43 102.932 161.598C103.1 161.766 103.184 161.971 103.184 162.214C103.184 162.457 103.1 162.662 102.932 162.83C102.774 162.998 102.578 163.082 102.344 163.082ZM102.96 164.328V172H101.686V164.328H102.96ZM106.406 165.742C106.658 165.303 107.031 164.939 107.526 164.65C108.03 164.351 108.613 164.202 109.276 164.202C109.957 164.202 110.573 164.365 111.124 164.692C111.684 165.019 112.122 165.481 112.44 166.078C112.757 166.666 112.916 167.352 112.916 168.136C112.916 168.911 112.757 169.601 112.44 170.208C112.122 170.815 111.684 171.286 111.124 171.622C110.573 171.958 109.957 172.126 109.276 172.126C108.622 172.126 108.044 171.981 107.54 171.692C107.045 171.393 106.667 171.025 106.406 170.586V175.64H105.132V164.328H106.406V165.742ZM111.614 168.136C111.614 167.557 111.497 167.053 111.264 166.624C111.03 166.195 110.713 165.868 110.312 165.644C109.92 165.42 109.486 165.308 109.01 165.308C108.543 165.308 108.109 165.425 107.708 165.658C107.316 165.882 106.998 166.213 106.756 166.652C106.522 167.081 106.406 167.581 106.406 168.15C106.406 168.729 106.522 169.237 106.756 169.676C106.998 170.105 107.316 170.437 107.708 170.67C108.109 170.894 108.543 171.006 109.01 171.006C109.486 171.006 109.92 170.894 110.312 170.67C110.713 170.437 111.03 170.105 111.264 169.676C111.497 169.237 111.614 168.724 111.614 168.136ZM117.309 172.126C116.721 172.126 116.193 172.028 115.727 171.832C115.26 171.627 114.891 171.347 114.621 170.992C114.35 170.628 114.201 170.213 114.173 169.746H115.489C115.526 170.129 115.703 170.441 116.021 170.684C116.347 170.927 116.772 171.048 117.295 171.048C117.78 171.048 118.163 170.941 118.443 170.726C118.723 170.511 118.863 170.241 118.863 169.914C118.863 169.578 118.713 169.331 118.415 169.172C118.116 169.004 117.654 168.841 117.029 168.682C116.459 168.533 115.993 168.383 115.629 168.234C115.274 168.075 114.966 167.847 114.705 167.548C114.453 167.24 114.327 166.839 114.327 166.344C114.327 165.952 114.443 165.593 114.677 165.266C114.91 164.939 115.241 164.683 115.671 164.496C116.1 164.3 116.59 164.202 117.141 164.202C117.99 164.202 118.676 164.417 119.199 164.846C119.721 165.275 120.001 165.863 120.039 166.61H118.765C118.737 166.209 118.573 165.887 118.275 165.644C117.985 165.401 117.593 165.28 117.099 165.28C116.641 165.28 116.277 165.378 116.007 165.574C115.736 165.77 115.601 166.027 115.601 166.344C115.601 166.596 115.68 166.806 115.839 166.974C116.007 167.133 116.212 167.263 116.455 167.366C116.707 167.459 117.052 167.567 117.491 167.688C118.041 167.837 118.489 167.987 118.835 168.136C119.18 168.276 119.474 168.491 119.717 168.78C119.969 169.069 120.099 169.447 120.109 169.914C120.109 170.334 119.992 170.712 119.759 171.048C119.525 171.384 119.194 171.65 118.765 171.846C118.345 172.033 117.859 172.126 117.309 172.126ZM128.711 164.328V172H127.437V170.866C127.194 171.258 126.854 171.566 126.415 171.79C125.986 172.005 125.51 172.112 124.987 172.112C124.39 172.112 123.853 171.991 123.377 171.748C122.901 171.496 122.523 171.123 122.243 170.628C121.972 170.133 121.837 169.531 121.837 168.822V164.328H123.097V168.654C123.097 169.41 123.288 169.993 123.671 170.404C124.054 170.805 124.576 171.006 125.239 171.006C125.92 171.006 126.457 170.796 126.849 170.376C127.241 169.956 127.437 169.345 127.437 168.542V164.328H128.711ZM140.088 164.188C140.686 164.188 141.218 164.314 141.684 164.566C142.151 164.809 142.52 165.177 142.79 165.672C143.061 166.167 143.196 166.769 143.196 167.478V172H141.936V167.66C141.936 166.895 141.745 166.311 141.362 165.91C140.989 165.499 140.48 165.294 139.836 165.294C139.174 165.294 138.646 165.509 138.254 165.938C137.862 166.358 137.666 166.969 137.666 167.772V172H136.406V167.66C136.406 166.895 136.215 166.311 135.832 165.91C135.459 165.499 134.95 165.294 134.306 165.294C133.644 165.294 133.116 165.509 132.724 165.938C132.332 166.358 132.136 166.969 132.136 167.772V172H130.862V164.328H132.136V165.434C132.388 165.033 132.724 164.725 133.144 164.51C133.574 164.295 134.045 164.188 134.558 164.188C135.202 164.188 135.772 164.333 136.266 164.622C136.761 164.911 137.13 165.336 137.372 165.896C137.587 165.355 137.942 164.935 138.436 164.636C138.931 164.337 139.482 164.188 140.088 164.188ZM148.542 168.136C148.542 167.352 148.701 166.666 149.018 166.078C149.336 165.481 149.77 165.019 150.32 164.692C150.88 164.365 151.506 164.202 152.196 164.202C152.794 164.202 153.349 164.342 153.862 164.622C154.376 164.893 154.768 165.252 155.038 165.7V161.64H156.326V172H155.038V170.558C154.786 171.015 154.413 171.393 153.918 171.692C153.424 171.981 152.845 172.126 152.182 172.126C151.501 172.126 150.88 171.958 150.32 171.622C149.77 171.286 149.336 170.815 149.018 170.208C148.701 169.601 148.542 168.911 148.542 168.136ZM155.038 168.15C155.038 167.571 154.922 167.067 154.688 166.638C154.455 166.209 154.138 165.882 153.736 165.658C153.344 165.425 152.91 165.308 152.434 165.308C151.958 165.308 151.524 165.42 151.132 165.644C150.74 165.868 150.428 166.195 150.194 166.624C149.961 167.053 149.844 167.557 149.844 168.136C149.844 168.724 149.961 169.237 150.194 169.676C150.428 170.105 150.74 170.437 151.132 170.67C151.524 170.894 151.958 171.006 152.434 171.006C152.91 171.006 153.344 170.894 153.736 170.67C154.138 170.437 154.455 170.105 154.688 169.676C154.922 169.237 155.038 168.729 155.038 168.15ZM161.825 172.126C161.107 172.126 160.453 171.963 159.865 171.636C159.287 171.309 158.829 170.847 158.493 170.25C158.167 169.643 158.003 168.943 158.003 168.15C158.003 167.366 158.171 166.675 158.507 166.078C158.853 165.471 159.319 165.009 159.907 164.692C160.495 164.365 161.153 164.202 161.881 164.202C162.609 164.202 163.267 164.365 163.855 164.692C164.443 165.009 164.905 165.467 165.241 166.064C165.587 166.661 165.759 167.357 165.759 168.15C165.759 168.943 165.582 169.643 165.227 170.25C164.882 170.847 164.411 171.309 163.813 171.636C163.216 171.963 162.553 172.126 161.825 172.126ZM161.825 171.006C162.283 171.006 162.712 170.899 163.113 170.684C163.515 170.469 163.837 170.147 164.079 169.718C164.331 169.289 164.457 168.766 164.457 168.15C164.457 167.534 164.336 167.011 164.093 166.582C163.851 166.153 163.533 165.835 163.141 165.63C162.749 165.415 162.325 165.308 161.867 165.308C161.401 165.308 160.971 165.415 160.579 165.63C160.197 165.835 159.889 166.153 159.655 166.582C159.422 167.011 159.305 167.534 159.305 168.15C159.305 168.775 159.417 169.303 159.641 169.732C159.875 170.161 160.183 170.483 160.565 170.698C160.948 170.903 161.368 171.006 161.825 171.006ZM168.708 161.64V172H167.434V161.64H168.708ZM174.226 172.126C173.507 172.126 172.854 171.963 172.266 171.636C171.687 171.309 171.23 170.847 170.894 170.25C170.567 169.643 170.404 168.943 170.404 168.15C170.404 167.366 170.572 166.675 170.908 166.078C171.253 165.471 171.72 165.009 172.308 164.692C172.896 164.365 173.554 164.202 174.282 164.202C175.01 164.202 175.668 164.365 176.256 164.692C176.844 165.009 177.306 165.467 177.642 166.064C177.987 166.661 178.16 167.357 178.16 168.15C178.16 168.943 177.982 169.643 177.628 170.25C177.282 170.847 176.811 171.309 176.214 171.636C175.616 171.963 174.954 172.126 174.226 172.126ZM174.226 171.006C174.683 171.006 175.112 170.899 175.514 170.684C175.915 170.469 176.237 170.147 176.48 169.718C176.732 169.289 176.858 168.766 176.858 168.15C176.858 167.534 176.736 167.011 176.494 166.582C176.251 166.153 175.934 165.835 175.542 165.63C175.15 165.415 174.725 165.308 174.268 165.308C173.801 165.308 173.372 165.415 172.98 165.63C172.597 165.835 172.289 166.153 172.056 166.582C171.822 167.011 171.706 167.534 171.706 168.15C171.706 168.775 171.818 169.303 172.042 169.732C172.275 170.161 172.583 170.483 172.966 170.698C173.348 170.903 173.768 171.006 174.226 171.006ZM181.109 165.574C181.333 165.135 181.65 164.795 182.061 164.552C182.481 164.309 182.99 164.188 183.587 164.188V165.504H183.251C181.823 165.504 181.109 166.279 181.109 167.828V172H179.835V164.328H181.109V165.574ZM191.506 172.126C190.918 172.126 190.391 172.028 189.924 171.832C189.457 171.627 189.089 171.347 188.818 170.992C188.547 170.628 188.398 170.213 188.37 169.746H189.686C189.723 170.129 189.901 170.441 190.218 170.684C190.545 170.927 190.969 171.048 191.492 171.048C191.977 171.048 192.36 170.941 192.64 170.726C192.92 170.511 193.06 170.241 193.06 169.914C193.06 169.578 192.911 169.331 192.612 169.172C192.313 169.004 191.851 168.841 191.226 168.682C190.657 168.533 190.19 168.383 189.826 168.234C189.471 168.075 189.163 167.847 188.902 167.548C188.65 167.24 188.524 166.839 188.524 166.344C188.524 165.952 188.641 165.593 188.874 165.266C189.107 164.939 189.439 164.683 189.868 164.496C190.297 164.3 190.787 164.202 191.338 164.202C192.187 164.202 192.873 164.417 193.396 164.846C193.919 165.275 194.199 165.863 194.236 166.61H192.962C192.934 166.209 192.771 165.887 192.472 165.644C192.183 165.401 191.791 165.28 191.296 165.28C190.839 165.28 190.475 165.378 190.204 165.574C189.933 165.77 189.798 166.027 189.798 166.344C189.798 166.596 189.877 166.806 190.036 166.974C190.204 167.133 190.409 167.263 190.652 167.366C190.904 167.459 191.249 167.567 191.688 167.688C192.239 167.837 192.687 167.987 193.032 168.136C193.377 168.276 193.671 168.491 193.914 168.78C194.166 169.069 194.297 169.447 194.306 169.914C194.306 170.334 194.189 170.712 193.956 171.048C193.723 171.384 193.391 171.65 192.962 171.846C192.542 172.033 192.057 172.126 191.506 172.126ZM196.762 163.082C196.52 163.082 196.314 162.998 196.146 162.83C195.978 162.662 195.894 162.457 195.894 162.214C195.894 161.971 195.978 161.766 196.146 161.598C196.314 161.43 196.52 161.346 196.762 161.346C196.996 161.346 197.192 161.43 197.35 161.598C197.518 161.766 197.602 161.971 197.602 162.214C197.602 162.457 197.518 162.662 197.35 162.83C197.192 162.998 196.996 163.082 196.762 163.082ZM197.378 164.328V172H196.104V164.328H197.378ZM201.104 165.378V169.9C201.104 170.273 201.183 170.539 201.342 170.698C201.5 170.847 201.776 170.922 202.168 170.922H203.106V172H201.958C201.248 172 200.716 171.837 200.362 171.51C200.007 171.183 199.83 170.647 199.83 169.9V165.378H198.836V164.328H199.83V162.396H201.104V164.328H203.106V165.378H201.104ZM207.906 168.136C207.906 167.352 208.064 166.666 208.382 166.078C208.699 165.481 209.133 165.019 209.684 164.692C210.244 164.365 210.864 164.202 211.546 164.202C212.218 164.202 212.801 164.347 213.296 164.636C213.79 164.925 214.159 165.289 214.402 165.728V164.328H215.69V172H214.402V170.572C214.15 171.02 213.772 171.393 213.268 171.692C212.773 171.981 212.194 172.126 211.532 172.126C210.85 172.126 210.234 171.958 209.684 171.622C209.133 171.286 208.699 170.815 208.382 170.208C208.064 169.601 207.906 168.911 207.906 168.136ZM214.402 168.15C214.402 167.571 214.285 167.067 214.052 166.638C213.818 166.209 213.501 165.882 213.1 165.658C212.708 165.425 212.274 165.308 211.798 165.308C211.322 165.308 210.888 165.42 210.496 165.644C210.104 165.868 209.791 166.195 209.558 166.624C209.324 167.053 209.208 167.557 209.208 168.136C209.208 168.724 209.324 169.237 209.558 169.676C209.791 170.105 210.104 170.437 210.496 170.67C210.888 170.894 211.322 171.006 211.798 171.006C212.274 171.006 212.708 170.894 213.1 170.67C213.501 170.437 213.818 170.105 214.052 169.676C214.285 169.237 214.402 168.729 214.402 168.15ZM227.069 164.188C227.666 164.188 228.198 164.314 228.665 164.566C229.131 164.809 229.5 165.177 229.771 165.672C230.041 166.167 230.177 166.769 230.177 167.478V172H228.917V167.66C228.917 166.895 228.725 166.311 228.343 165.91C227.969 165.499 227.461 165.294 226.817 165.294C226.154 165.294 225.627 165.509 225.235 165.938C224.843 166.358 224.647 166.969 224.647 167.772V172H223.387V167.66C223.387 166.895 223.195 166.311 222.813 165.91C222.439 165.499 221.931 165.294 221.287 165.294C220.624 165.294 220.097 165.509 219.705 165.938C219.313 166.358 219.117 166.969 219.117 167.772V172H217.843V164.328H219.117V165.434C219.369 165.033 219.705 164.725 220.125 164.51C220.554 164.295 221.025 164.188 221.539 164.188C222.183 164.188 222.752 164.333 223.247 164.622C223.741 164.911 224.11 165.336 224.353 165.896C224.567 165.355 224.922 164.935 225.417 164.636C225.911 164.337 226.462 164.188 227.069 164.188ZM239.266 167.87C239.266 168.113 239.252 168.369 239.224 168.64H233.092C233.139 169.396 233.396 169.989 233.862 170.418C234.338 170.838 234.912 171.048 235.584 171.048C236.135 171.048 236.592 170.922 236.956 170.67C237.33 170.409 237.591 170.063 237.74 169.634H239.112C238.907 170.371 238.496 170.973 237.88 171.44C237.264 171.897 236.499 172.126 235.584 172.126C234.856 172.126 234.203 171.963 233.624 171.636C233.055 171.309 232.607 170.847 232.28 170.25C231.954 169.643 231.79 168.943 231.79 168.15C231.79 167.357 231.949 166.661 232.266 166.064C232.584 165.467 233.027 165.009 233.596 164.692C234.175 164.365 234.838 164.202 235.584 164.202C236.312 164.202 236.956 164.361 237.516 164.678C238.076 164.995 238.506 165.434 238.804 165.994C239.112 166.545 239.266 167.17 239.266 167.87ZM237.95 167.604C237.95 167.119 237.843 166.703 237.628 166.358C237.414 166.003 237.12 165.737 236.746 165.56C236.382 165.373 235.976 165.28 235.528 165.28C234.884 165.28 234.334 165.485 233.876 165.896C233.428 166.307 233.172 166.876 233.106 167.604H237.95ZM242.502 165.378V169.9C242.502 170.273 242.581 170.539 242.74 170.698C242.899 170.847 243.174 170.922 243.566 170.922H244.504V172H243.356C242.647 172 242.115 171.837 241.76 171.51C241.405 171.183 241.228 170.647 241.228 169.9V165.378H240.234V164.328H241.228V162.396H242.502V164.328H244.504V165.378H242.502ZM247.364 170.236L245.796 174.002H244.942L245.964 170.236H247.364ZM252.08 168.15C252.08 167.357 252.238 166.666 252.556 166.078C252.873 165.481 253.312 165.019 253.872 164.692C254.441 164.365 255.09 164.202 255.818 164.202C256.76 164.202 257.535 164.431 258.142 164.888C258.758 165.345 259.164 165.98 259.36 166.792H257.988C257.857 166.325 257.6 165.957 257.218 165.686C256.844 165.415 256.378 165.28 255.818 165.28C255.09 165.28 254.502 165.532 254.054 166.036C253.606 166.531 253.382 167.235 253.382 168.15C253.382 169.074 253.606 169.788 254.054 170.292C254.502 170.796 255.09 171.048 255.818 171.048C256.378 171.048 256.844 170.917 257.218 170.656C257.591 170.395 257.848 170.021 257.988 169.536H259.36C259.154 170.32 258.744 170.95 258.128 171.426C257.512 171.893 256.742 172.126 255.818 172.126C255.09 172.126 254.441 171.963 253.872 171.636C253.312 171.309 252.873 170.847 252.556 170.25C252.238 169.653 252.08 168.953 252.08 168.15ZM264.405 172.126C263.687 172.126 263.033 171.963 262.445 171.636C261.867 171.309 261.409 170.847 261.073 170.25C260.747 169.643 260.583 168.943 260.583 168.15C260.583 167.366 260.751 166.675 261.087 166.078C261.433 165.471 261.899 165.009 262.487 164.692C263.075 164.365 263.733 164.202 264.461 164.202C265.189 164.202 265.847 164.365 266.435 164.692C267.023 165.009 267.485 165.467 267.821 166.064C268.167 166.661 268.339 167.357 268.339 168.15C268.339 168.943 268.162 169.643 267.807 170.25C267.462 170.847 266.991 171.309 266.393 171.636C265.796 171.963 265.133 172.126 264.405 172.126ZM264.405 171.006C264.863 171.006 265.292 170.899 265.693 170.684C266.095 170.469 266.417 170.147 266.659 169.718C266.911 169.289 267.037 168.766 267.037 168.15C267.037 167.534 266.916 167.011 266.673 166.582C266.431 166.153 266.113 165.835 265.721 165.63C265.329 165.415 264.905 165.308 264.447 165.308C263.981 165.308 263.551 165.415 263.159 165.63C262.777 165.835 262.469 166.153 262.235 166.582C262.002 167.011 261.885 167.534 261.885 168.15C261.885 168.775 261.997 169.303 262.221 169.732C262.455 170.161 262.763 170.483 263.145 170.698C263.528 170.903 263.948 171.006 264.405 171.006ZM273.753 164.188C274.686 164.188 275.442 164.473 276.021 165.042C276.599 165.602 276.889 166.414 276.889 167.478V172H275.629V167.66C275.629 166.895 275.437 166.311 275.055 165.91C274.672 165.499 274.149 165.294 273.487 165.294C272.815 165.294 272.278 165.504 271.877 165.924C271.485 166.344 271.289 166.955 271.289 167.758V172H270.015V164.328H271.289V165.42C271.541 165.028 271.881 164.725 272.311 164.51C272.749 164.295 273.23 164.188 273.753 164.188ZM281.686 172.126C281.098 172.126 280.57 172.028 280.104 171.832C279.637 171.627 279.268 171.347 278.998 170.992C278.727 170.628 278.578 170.213 278.55 169.746H279.866C279.903 170.129 280.08 170.441 280.398 170.684C280.724 170.927 281.149 171.048 281.672 171.048C282.157 171.048 282.54 170.941 282.82 170.726C283.1 170.511 283.24 170.241 283.24 169.914C283.24 169.578 283.09 169.331 282.792 169.172C282.493 169.004 282.031 168.841 281.406 168.682C280.836 168.533 280.37 168.383 280.006 168.234C279.651 168.075 279.343 167.847 279.082 167.548C278.83 167.24 278.704 166.839 278.704 166.344C278.704 165.952 278.82 165.593 279.054 165.266C279.287 164.939 279.618 164.683 280.048 164.496C280.477 164.3 280.967 164.202 281.518 164.202C282.367 164.202 283.053 164.417 283.576 164.846C284.098 165.275 284.378 165.863 284.416 166.61H283.142C283.114 166.209 282.95 165.887 282.652 165.644C282.362 165.401 281.97 165.28 281.476 165.28C281.018 165.28 280.654 165.378 280.384 165.574C280.113 165.77 279.978 166.027 279.978 166.344C279.978 166.596 280.057 166.806 280.216 166.974C280.384 167.133 280.589 167.263 280.832 167.366C281.084 167.459 281.429 167.567 281.868 167.688C282.418 167.837 282.866 167.987 283.212 168.136C283.557 168.276 283.851 168.491 284.094 168.78C284.346 169.069 284.476 169.447 284.486 169.914C284.486 170.334 284.369 170.712 284.136 171.048C283.902 171.384 283.571 171.65 283.142 171.846C282.722 172.033 282.236 172.126 281.686 172.126ZM293.284 167.87C293.284 168.113 293.27 168.369 293.242 168.64H287.11C287.157 169.396 287.413 169.989 287.88 170.418C288.356 170.838 288.93 171.048 289.602 171.048C290.153 171.048 290.61 170.922 290.974 170.67C291.347 170.409 291.609 170.063 291.758 169.634H293.13C292.925 170.371 292.514 170.973 291.898 171.44C291.282 171.897 290.517 172.126 289.602 172.126C288.874 172.126 288.221 171.963 287.642 171.636C287.073 171.309 286.625 170.847 286.298 170.25C285.971 169.643 285.808 168.943 285.808 168.15C285.808 167.357 285.967 166.661 286.284 166.064C286.601 165.467 287.045 165.009 287.614 164.692C288.193 164.365 288.855 164.202 289.602 164.202C290.33 164.202 290.974 164.361 291.534 164.678C292.094 164.995 292.523 165.434 292.822 165.994C293.13 166.545 293.284 167.17 293.284 167.87ZM291.968 167.604C291.968 167.119 291.861 166.703 291.646 166.358C291.431 166.003 291.137 165.737 290.764 165.56C290.4 165.373 289.994 165.28 289.546 165.28C288.902 165.28 288.351 165.485 287.894 165.896C287.446 166.307 287.189 166.876 287.124 167.604H291.968ZM294.49 168.15C294.49 167.357 294.648 166.666 294.966 166.078C295.283 165.481 295.722 165.019 296.282 164.692C296.851 164.365 297.5 164.202 298.228 164.202C299.17 164.202 299.945 164.431 300.552 164.888C301.168 165.345 301.574 165.98 301.77 166.792H300.398C300.267 166.325 300.01 165.957 299.628 165.686C299.254 165.415 298.788 165.28 298.228 165.28C297.5 165.28 296.912 165.532 296.464 166.036C296.016 166.531 295.792 167.235 295.792 168.15C295.792 169.074 296.016 169.788 296.464 170.292C296.912 170.796 297.5 171.048 298.228 171.048C298.788 171.048 299.254 170.917 299.628 170.656C300.001 170.395 300.258 170.021 300.398 169.536H301.77C301.564 170.32 301.154 170.95 300.538 171.426C299.922 171.893 299.152 172.126 298.228 172.126C297.5 172.126 296.851 171.963 296.282 171.636C295.722 171.309 295.283 170.847 294.966 170.25C294.648 169.653 294.49 168.953 294.49 168.15ZM305.024 165.378V169.9C305.024 170.273 305.103 170.539 305.262 170.698C305.42 170.847 305.696 170.922 306.088 170.922H307.026V172H305.878C305.168 172 304.636 171.837 304.282 171.51C303.927 171.183 303.75 170.647 303.75 169.9V165.378H302.756V164.328H303.75V162.396H305.024V164.328H307.026V165.378H305.024ZM315.569 167.87C315.569 168.113 315.555 168.369 315.527 168.64H309.395C309.442 169.396 309.699 169.989 310.165 170.418C310.641 170.838 311.215 171.048 311.887 171.048C312.438 171.048 312.895 170.922 313.259 170.67C313.633 170.409 313.894 170.063 314.043 169.634H315.415C315.21 170.371 314.799 170.973 314.183 171.44C313.567 171.897 312.802 172.126 311.887 172.126C311.159 172.126 310.506 171.963 309.927 171.636C309.358 171.309 308.91 170.847 308.583 170.25C308.257 169.643 308.093 168.943 308.093 168.15C308.093 167.357 308.252 166.661 308.569 166.064C308.887 165.467 309.33 165.009 309.899 164.692C310.478 164.365 311.141 164.202 311.887 164.202C312.615 164.202 313.259 164.361 313.819 164.678C314.379 164.995 314.809 165.434 315.107 165.994C315.415 166.545 315.569 167.17 315.569 167.87ZM314.253 167.604C314.253 167.119 314.146 166.703 313.931 166.358C313.717 166.003 313.423 165.737 313.049 165.56C312.685 165.373 312.279 165.28 311.831 165.28C311.187 165.28 310.637 165.485 310.179 165.896C309.731 166.307 309.475 166.876 309.409 167.604H314.253ZM318.805 165.378V169.9C318.805 170.273 318.884 170.539 319.043 170.698C319.202 170.847 319.477 170.922 319.869 170.922H320.807V172H319.659C318.95 172 318.418 171.837 318.063 171.51C317.708 171.183 317.531 170.647 317.531 169.9V165.378H316.537V164.328H317.531V162.396H318.805V164.328H320.807V165.378H318.805ZM329.154 164.328V172H327.88V170.866C327.638 171.258 327.297 171.566 326.858 171.79C326.429 172.005 325.953 172.112 325.43 172.112C324.833 172.112 324.296 171.991 323.82 171.748C323.344 171.496 322.966 171.123 322.686 170.628C322.416 170.133 322.28 169.531 322.28 168.822V164.328H323.54V168.654C323.54 169.41 323.732 169.993 324.114 170.404C324.497 170.805 325.02 171.006 325.682 171.006C326.364 171.006 326.9 170.796 327.292 170.376C327.684 169.956 327.88 169.345 327.88 168.542V164.328H329.154ZM332.58 165.574C332.804 165.135 333.121 164.795 333.532 164.552C333.952 164.309 334.46 164.188 335.058 164.188V165.504H334.722C333.294 165.504 332.58 166.279 332.58 167.828V172H331.306V164.328H332.58V165.574ZM56.5786 187.136C56.5786 186.352 56.7372 185.666 57.0546 185.078C57.3719 184.481 57.8059 184.019 58.3566 183.692C58.9166 183.365 59.5372 183.202 60.2186 183.202C60.8906 183.202 61.4739 183.347 61.9686 183.636C62.4632 183.925 62.8319 184.289 63.0746 184.728V183.328H64.3626V191H63.0746V189.572C62.8226 190.02 62.4446 190.393 61.9406 190.692C61.4459 190.981 60.8672 191.126 60.2046 191.126C59.5232 191.126 58.9072 190.958 58.3566 190.622C57.8059 190.286 57.3719 189.815 57.0546 189.208C56.7372 188.601 56.5786 187.911 56.5786 187.136ZM63.0746 187.15C63.0746 186.571 62.9579 186.067 62.7246 185.638C62.4912 185.209 62.1739 184.882 61.7726 184.658C61.3806 184.425 60.9466 184.308 60.4706 184.308C59.9946 184.308 59.5606 184.42 59.1686 184.644C58.7766 184.868 58.4639 185.195 58.2306 185.624C57.9972 186.053 57.8806 186.557 57.8806 187.136C57.8806 187.724 57.9972 188.237 58.2306 188.676C58.4639 189.105 58.7766 189.437 59.1686 189.67C59.5606 189.894 59.9946 190.006 60.4706 190.006C60.9466 190.006 61.3806 189.894 61.7726 189.67C62.1739 189.437 62.4912 189.105 62.7246 188.676C62.9579 188.237 63.0746 187.729 63.0746 187.15ZM66.0395 187.136C66.0395 186.352 66.1982 185.666 66.5155 185.078C66.8328 184.481 67.2668 184.019 67.8175 183.692C68.3775 183.365 69.0028 183.202 69.6935 183.202C70.2908 183.202 70.8462 183.342 71.3595 183.622C71.8728 183.893 72.2648 184.252 72.5355 184.7V180.64H73.8235V191H72.5355V189.558C72.2835 190.015 71.9102 190.393 71.4155 190.692C70.9208 190.981 70.3422 191.126 69.6795 191.126C68.9982 191.126 68.3775 190.958 67.8175 190.622C67.2668 190.286 66.8328 189.815 66.5155 189.208C66.1982 188.601 66.0395 187.911 66.0395 187.136ZM72.5355 187.15C72.5355 186.571 72.4188 186.067 72.1855 185.638C71.9522 185.209 71.6348 184.882 71.2335 184.658C70.8415 184.425 70.4075 184.308 69.9315 184.308C69.4555 184.308 69.0215 184.42 68.6295 184.644C68.2375 184.868 67.9248 185.195 67.6915 185.624C67.4582 186.053 67.3415 186.557 67.3415 187.136C67.3415 187.724 67.4582 188.237 67.6915 188.676C67.9248 189.105 68.2375 189.437 68.6295 189.67C69.0215 189.894 69.4555 190.006 69.9315 190.006C70.4075 190.006 70.8415 189.894 71.2335 189.67C71.6348 189.437 71.9522 189.105 72.1855 188.676C72.4188 188.237 72.5355 187.729 72.5355 187.15ZM76.6344 182.082C76.3918 182.082 76.1864 181.998 76.0184 181.83C75.8504 181.662 75.7664 181.457 75.7664 181.214C75.7664 180.971 75.8504 180.766 76.0184 180.598C76.1864 180.43 76.3918 180.346 76.6344 180.346C76.8678 180.346 77.0638 180.43 77.2224 180.598C77.3904 180.766 77.4744 180.971 77.4744 181.214C77.4744 181.457 77.3904 181.662 77.2224 181.83C77.0638 181.998 76.8678 182.082 76.6344 182.082ZM77.2504 183.328V191H75.9764V183.328H77.2504ZM80.6958 184.742C80.9478 184.303 81.3211 183.939 81.8158 183.65C82.3198 183.351 82.9031 183.202 83.5658 183.202C84.2471 183.202 84.8631 183.365 85.4137 183.692C85.9737 184.019 86.4124 184.481 86.7298 185.078C87.0471 185.666 87.2058 186.352 87.2058 187.136C87.2058 187.911 87.0471 188.601 86.7298 189.208C86.4124 189.815 85.9737 190.286 85.4137 190.622C84.8631 190.958 84.2471 191.126 83.5658 191.126C82.9124 191.126 82.3338 190.981 81.8298 190.692C81.3351 190.393 80.9571 190.025 80.6958 189.586V194.64H79.4218V183.328H80.6958V184.742ZM85.9038 187.136C85.9038 186.557 85.7871 186.053 85.5538 185.624C85.3204 185.195 85.0031 184.868 84.6018 184.644C84.2098 184.42 83.7758 184.308 83.2998 184.308C82.8331 184.308 82.3991 184.425 81.9978 184.658C81.6058 184.882 81.2884 185.213 81.0458 185.652C80.8124 186.081 80.6958 186.581 80.6958 187.15C80.6958 187.729 80.8124 188.237 81.0458 188.676C81.2884 189.105 81.6058 189.437 81.9978 189.67C82.3991 189.894 82.8331 190.006 83.2998 190.006C83.7758 190.006 84.2098 189.894 84.6018 189.67C85.0031 189.437 85.3204 189.105 85.5538 188.676C85.7871 188.237 85.9038 187.724 85.9038 187.136ZM89.5407 182.082C89.298 182.082 89.0927 181.998 88.9247 181.83C88.7567 181.662 88.6727 181.457 88.6727 181.214C88.6727 180.971 88.7567 180.766 88.9247 180.598C89.0927 180.43 89.298 180.346 89.5407 180.346C89.774 180.346 89.97 180.43 90.1287 180.598C90.2967 180.766 90.3807 180.971 90.3807 181.214C90.3807 181.457 90.2967 181.662 90.1287 181.83C89.97 181.998 89.774 182.082 89.5407 182.082ZM90.1567 183.328V191H88.8827V183.328H90.1567ZM95.044 191.126C94.456 191.126 93.9287 191.028 93.462 190.832C92.9953 190.627 92.6267 190.347 92.356 189.992C92.0853 189.628 91.936 189.213 91.908 188.746H93.224C93.2613 189.129 93.4387 189.441 93.756 189.684C94.0827 189.927 94.5073 190.048 95.03 190.048C95.5153 190.048 95.898 189.941 96.178 189.726C96.458 189.511 96.598 189.241 96.598 188.914C96.598 188.578 96.4487 188.331 96.15 188.172C95.8513 188.004 95.3893 187.841 94.764 187.682C94.1947 187.533 93.728 187.383 93.364 187.234C93.0093 187.075 92.7013 186.847 92.44 186.548C92.188 186.24 92.062 185.839 92.062 185.344C92.062 184.952 92.1787 184.593 92.412 184.266C92.6453 183.939 92.9767 183.683 93.406 183.496C93.8353 183.3 94.3253 183.202 94.876 183.202C95.7253 183.202 96.4113 183.417 96.934 183.846C97.4567 184.275 97.7367 184.863 97.774 185.61H96.5C96.472 185.209 96.3087 184.887 96.01 184.644C95.7207 184.401 95.3287 184.28 94.834 184.28C94.3767 184.28 94.0127 184.378 93.742 184.574C93.4713 184.77 93.336 185.027 93.336 185.344C93.336 185.596 93.4153 185.806 93.574 185.974C93.742 186.133 93.9473 186.263 94.19 186.366C94.442 186.459 94.7873 186.567 95.226 186.688C95.7767 186.837 96.2247 186.987 96.57 187.136C96.9153 187.276 97.2093 187.491 97.452 187.78C97.704 188.069 97.8347 188.447 97.844 188.914C97.844 189.334 97.7273 189.712 97.494 190.048C97.2607 190.384 96.9293 190.65 96.5 190.846C96.08 191.033 95.5947 191.126 95.044 191.126ZM99.1665 187.15C99.1665 186.357 99.3251 185.666 99.6425 185.078C99.9598 184.481 100.398 184.019 100.958 183.692C101.528 183.365 102.176 183.202 102.904 183.202C103.847 183.202 104.622 183.431 105.228 183.888C105.844 184.345 106.25 184.98 106.446 185.792H105.074C104.944 185.325 104.687 184.957 104.304 184.686C103.931 184.415 103.464 184.28 102.904 184.28C102.176 184.28 101.588 184.532 101.14 185.036C100.692 185.531 100.468 186.235 100.468 187.15C100.468 188.074 100.692 188.788 101.14 189.292C101.588 189.796 102.176 190.048 102.904 190.048C103.464 190.048 103.931 189.917 104.304 189.656C104.678 189.395 104.934 189.021 105.074 188.536H106.446C106.241 189.32 105.83 189.95 105.214 190.426C104.598 190.893 103.828 191.126 102.904 191.126C102.176 191.126 101.528 190.963 100.958 190.636C100.398 190.309 99.9598 189.847 99.6425 189.25C99.3251 188.653 99.1665 187.953 99.1665 187.15ZM108.804 182.082C108.562 182.082 108.356 181.998 108.188 181.83C108.02 181.662 107.936 181.457 107.936 181.214C107.936 180.971 108.02 180.766 108.188 180.598C108.356 180.43 108.562 180.346 108.804 180.346C109.038 180.346 109.234 180.43 109.392 180.598C109.56 180.766 109.644 180.971 109.644 181.214C109.644 181.457 109.56 181.662 109.392 181.83C109.234 181.998 109.038 182.082 108.804 182.082ZM109.42 183.328V191H108.146V183.328H109.42ZM115.33 183.188C116.263 183.188 117.019 183.473 117.598 184.042C118.176 184.602 118.466 185.414 118.466 186.478V191H117.206V186.66C117.206 185.895 117.014 185.311 116.632 184.91C116.249 184.499 115.726 184.294 115.064 184.294C114.392 184.294 113.855 184.504 113.454 184.924C113.062 185.344 112.866 185.955 112.866 186.758V191H111.592V183.328H112.866V184.42C113.118 184.028 113.458 183.725 113.888 183.51C114.326 183.295 114.807 183.188 115.33 183.188ZM123.711 183.202C124.373 183.202 124.952 183.347 125.447 183.636C125.951 183.925 126.324 184.289 126.567 184.728V183.328H127.855V191.168C127.855 191.868 127.705 192.489 127.407 193.03C127.108 193.581 126.679 194.01 126.119 194.318C125.568 194.626 124.924 194.78 124.187 194.78C123.179 194.78 122.339 194.542 121.667 194.066C120.995 193.59 120.598 192.941 120.477 192.12H121.737C121.877 192.587 122.166 192.96 122.605 193.24C123.043 193.529 123.571 193.674 124.187 193.674C124.887 193.674 125.456 193.455 125.895 193.016C126.343 192.577 126.567 191.961 126.567 191.168V189.558C126.315 190.006 125.941 190.379 125.447 190.678C124.952 190.977 124.373 191.126 123.711 191.126C123.029 191.126 122.409 190.958 121.849 190.622C121.298 190.286 120.864 189.815 120.547 189.208C120.229 188.601 120.071 187.911 120.071 187.136C120.071 186.352 120.229 185.666 120.547 185.078C120.864 184.481 121.298 184.019 121.849 183.692C122.409 183.365 123.029 183.202 123.711 183.202ZM126.567 187.15C126.567 186.571 126.45 186.067 126.217 185.638C125.983 185.209 125.666 184.882 125.265 184.658C124.873 184.425 124.439 184.308 123.963 184.308C123.487 184.308 123.053 184.42 122.661 184.644C122.269 184.868 121.956 185.195 121.723 185.624C121.489 186.053 121.373 186.557 121.373 187.136C121.373 187.724 121.489 188.237 121.723 188.676C121.956 189.105 122.269 189.437 122.661 189.67C123.053 189.894 123.487 190.006 123.963 190.006C124.439 190.006 124.873 189.894 125.265 189.67C125.666 189.437 125.983 189.105 126.217 188.676C126.45 188.237 126.567 187.729 126.567 187.15ZM140.74 186.87C140.74 187.113 140.726 187.369 140.698 187.64H134.566C134.613 188.396 134.869 188.989 135.336 189.418C135.812 189.838 136.386 190.048 137.058 190.048C137.609 190.048 138.066 189.922 138.43 189.67C138.803 189.409 139.065 189.063 139.214 188.634H140.586C140.381 189.371 139.97 189.973 139.354 190.44C138.738 190.897 137.973 191.126 137.058 191.126C136.33 191.126 135.677 190.963 135.098 190.636C134.529 190.309 134.081 189.847 133.754 189.25C133.427 188.643 133.264 187.943 133.264 187.15C133.264 186.357 133.423 185.661 133.74 185.064C134.057 184.467 134.501 184.009 135.07 183.692C135.649 183.365 136.311 183.202 137.058 183.202C137.786 183.202 138.43 183.361 138.99 183.678C139.55 183.995 139.979 184.434 140.278 184.994C140.586 185.545 140.74 186.17 140.74 186.87ZM139.424 186.604C139.424 186.119 139.317 185.703 139.102 185.358C138.887 185.003 138.593 184.737 138.22 184.56C137.856 184.373 137.45 184.28 137.002 184.28C136.358 184.28 135.807 184.485 135.35 184.896C134.902 185.307 134.645 185.876 134.58 186.604H139.424ZM143.696 180.64V191H142.422V180.64H143.696ZM146.525 182.082C146.282 182.082 146.077 181.998 145.909 181.83C145.741 181.662 145.657 181.457 145.657 181.214C145.657 180.971 145.741 180.766 145.909 180.598C146.077 180.43 146.282 180.346 146.525 180.346C146.758 180.346 146.954 180.43 147.113 180.598C147.281 180.766 147.365 180.971 147.365 181.214C147.365 181.457 147.281 181.662 147.113 181.83C146.954 181.998 146.758 182.082 146.525 182.082ZM147.141 183.328V191H145.867V183.328H147.141ZM150.866 184.378V188.9C150.866 189.273 150.946 189.539 151.104 189.698C151.263 189.847 151.538 189.922 151.93 189.922H152.868V191H151.72C151.011 191 150.479 190.837 150.124 190.51C149.77 190.183 149.592 189.647 149.592 188.9V184.378H148.598V183.328H149.592V181.396H150.866V183.328H152.868V184.378H150.866ZM154.818 191.084C154.575 191.084 154.37 191 154.202 190.832C154.034 190.664 153.95 190.459 153.95 190.216C153.95 189.973 154.034 189.768 154.202 189.6C154.37 189.432 154.575 189.348 154.818 189.348C155.051 189.348 155.247 189.432 155.406 189.6C155.574 189.768 155.658 189.973 155.658 190.216C155.658 190.459 155.574 190.664 155.406 190.832C155.247 191 155.051 191.084 154.818 191.084ZM164.178 191.098C163.534 191.098 162.955 190.986 162.442 190.762C161.938 190.529 161.541 190.211 161.252 189.81C160.963 189.399 160.813 188.928 160.804 188.396H162.162C162.209 188.853 162.395 189.241 162.722 189.558C163.058 189.866 163.543 190.02 164.178 190.02C164.785 190.02 165.261 189.871 165.606 189.572C165.961 189.264 166.138 188.872 166.138 188.396C166.138 188.023 166.035 187.719 165.83 187.486C165.625 187.253 165.368 187.075 165.06 186.954C164.752 186.833 164.337 186.702 163.814 186.562C163.17 186.394 162.652 186.226 162.26 186.058C161.877 185.89 161.546 185.629 161.266 185.274C160.995 184.91 160.86 184.425 160.86 183.818C160.86 183.286 160.995 182.815 161.266 182.404C161.537 181.993 161.915 181.676 162.4 181.452C162.895 181.228 163.459 181.116 164.094 181.116C165.009 181.116 165.755 181.345 166.334 181.802C166.922 182.259 167.253 182.866 167.328 183.622H165.928C165.881 183.249 165.685 182.922 165.34 182.642C164.995 182.353 164.537 182.208 163.968 182.208C163.436 182.208 163.002 182.348 162.666 182.628C162.33 182.899 162.162 183.281 162.162 183.776C162.162 184.131 162.26 184.42 162.456 184.644C162.661 184.868 162.909 185.041 163.198 185.162C163.497 185.274 163.912 185.405 164.444 185.554C165.088 185.731 165.606 185.909 165.998 186.086C166.39 186.254 166.726 186.52 167.006 186.884C167.286 187.239 167.426 187.724 167.426 188.34C167.426 188.816 167.3 189.264 167.048 189.684C166.796 190.104 166.423 190.445 165.928 190.706C165.433 190.967 164.85 191.098 164.178 191.098ZM176.105 183.328V191H174.831V189.866C174.588 190.258 174.247 190.566 173.809 190.79C173.379 191.005 172.903 191.112 172.381 191.112C171.783 191.112 171.247 190.991 170.771 190.748C170.295 190.496 169.917 190.123 169.637 189.628C169.366 189.133 169.231 188.531 169.231 187.822V183.328H170.491V187.654C170.491 188.41 170.682 188.993 171.065 189.404C171.447 189.805 171.97 190.006 172.633 190.006C173.314 190.006 173.851 189.796 174.243 189.376C174.635 188.956 174.831 188.345 174.831 187.542V183.328H176.105ZM180.972 191.126C180.384 191.126 179.856 191.028 179.39 190.832C178.923 190.627 178.554 190.347 178.284 189.992C178.013 189.628 177.864 189.213 177.836 188.746H179.152C179.189 189.129 179.366 189.441 179.684 189.684C180.01 189.927 180.435 190.048 180.958 190.048C181.443 190.048 181.826 189.941 182.106 189.726C182.386 189.511 182.526 189.241 182.526 188.914C182.526 188.578 182.376 188.331 182.078 188.172C181.779 188.004 181.317 187.841 180.692 187.682C180.122 187.533 179.656 187.383 179.292 187.234C178.937 187.075 178.629 186.847 178.368 186.548C178.116 186.24 177.99 185.839 177.99 185.344C177.99 184.952 178.106 184.593 178.34 184.266C178.573 183.939 178.904 183.683 179.334 183.496C179.763 183.3 180.253 183.202 180.804 183.202C181.653 183.202 182.339 183.417 182.862 183.846C183.384 184.275 183.664 184.863 183.702 185.61H182.428C182.4 185.209 182.236 184.887 181.938 184.644C181.648 184.401 181.256 184.28 180.762 184.28C180.304 184.28 179.94 184.378 179.67 184.574C179.399 184.77 179.264 185.027 179.264 185.344C179.264 185.596 179.343 185.806 179.502 185.974C179.67 186.133 179.875 186.263 180.118 186.366C180.37 186.459 180.715 186.567 181.154 186.688C181.704 186.837 182.152 186.987 182.498 187.136C182.843 187.276 183.137 187.491 183.38 187.78C183.632 188.069 183.762 188.447 183.772 188.914C183.772 189.334 183.655 189.712 183.422 190.048C183.188 190.384 182.857 190.65 182.428 190.846C182.008 191.033 181.522 191.126 180.972 191.126ZM186.844 184.742C187.096 184.303 187.47 183.939 187.964 183.65C188.468 183.351 189.052 183.202 189.714 183.202C190.396 183.202 191.012 183.365 191.562 183.692C192.122 184.019 192.561 184.481 192.878 185.078C193.196 185.666 193.354 186.352 193.354 187.136C193.354 187.911 193.196 188.601 192.878 189.208C192.561 189.815 192.122 190.286 191.562 190.622C191.012 190.958 190.396 191.126 189.714 191.126C189.061 191.126 188.482 190.981 187.978 190.692C187.484 190.393 187.106 190.025 186.844 189.586V194.64H185.57V183.328H186.844V184.742ZM192.052 187.136C192.052 186.557 191.936 186.053 191.702 185.624C191.469 185.195 191.152 184.868 190.75 184.644C190.358 184.42 189.924 184.308 189.448 184.308C188.982 184.308 188.548 184.425 188.146 184.658C187.754 184.882 187.437 185.213 187.194 185.652C186.961 186.081 186.844 186.581 186.844 187.15C186.844 187.729 186.961 188.237 187.194 188.676C187.437 189.105 187.754 189.437 188.146 189.67C188.548 189.894 188.982 190.006 189.448 190.006C189.924 190.006 190.358 189.894 190.75 189.67C191.152 189.437 191.469 189.105 191.702 188.676C191.936 188.237 192.052 187.724 192.052 187.136ZM202.031 186.87C202.031 187.113 202.017 187.369 201.989 187.64H195.857C195.904 188.396 196.16 188.989 196.627 189.418C197.103 189.838 197.677 190.048 198.349 190.048C198.9 190.048 199.357 189.922 199.721 189.67C200.094 189.409 200.356 189.063 200.505 188.634H201.877C201.672 189.371 201.261 189.973 200.645 190.44C200.029 190.897 199.264 191.126 198.349 191.126C197.621 191.126 196.968 190.963 196.389 190.636C195.82 190.309 195.372 189.847 195.045 189.25C194.718 188.643 194.555 187.943 194.555 187.15C194.555 186.357 194.714 185.661 195.031 185.064C195.348 184.467 195.792 184.009 196.361 183.692C196.94 183.365 197.602 183.202 198.349 183.202C199.077 183.202 199.721 183.361 200.281 183.678C200.841 183.995 201.27 184.434 201.569 184.994C201.877 185.545 202.031 186.17 202.031 186.87ZM200.715 186.604C200.715 186.119 200.608 185.703 200.393 185.358C200.178 185.003 199.884 184.737 199.511 184.56C199.147 184.373 198.741 184.28 198.293 184.28C197.649 184.28 197.098 184.485 196.641 184.896C196.193 185.307 195.936 185.876 195.871 186.604H200.715ZM207.451 183.188C208.384 183.188 209.14 183.473 209.719 184.042C210.297 184.602 210.587 185.414 210.587 186.478V191H209.327V186.66C209.327 185.895 209.135 185.311 208.753 184.91C208.37 184.499 207.847 184.294 207.185 184.294C206.513 184.294 205.976 184.504 205.575 184.924C205.183 185.344 204.987 185.955 204.987 186.758V191H203.713V183.328H204.987V184.42C205.239 184.028 205.579 183.725 206.009 183.51C206.447 183.295 206.928 183.188 207.451 183.188ZM212.192 187.136C212.192 186.352 212.351 185.666 212.668 185.078C212.985 184.481 213.419 184.019 213.97 183.692C214.53 183.365 215.155 183.202 215.846 183.202C216.443 183.202 216.999 183.342 217.512 183.622C218.025 183.893 218.417 184.252 218.688 184.7V180.64H219.976V191H218.688V189.558C218.436 190.015 218.063 190.393 217.568 190.692C217.073 190.981 216.495 191.126 215.832 191.126C215.151 191.126 214.53 190.958 213.97 190.622C213.419 190.286 212.985 189.815 212.668 189.208C212.351 188.601 212.192 187.911 212.192 187.136ZM218.688 187.15C218.688 186.571 218.571 186.067 218.338 185.638C218.105 185.209 217.787 184.882 217.386 184.658C216.994 184.425 216.56 184.308 216.084 184.308C215.608 184.308 215.174 184.42 214.782 184.644C214.39 184.868 214.077 185.195 213.844 185.624C213.611 186.053 213.494 186.557 213.494 187.136C213.494 187.724 213.611 188.237 213.844 188.676C214.077 189.105 214.39 189.437 214.782 189.67C215.174 189.894 215.608 190.006 216.084 190.006C216.56 190.006 216.994 189.894 217.386 189.67C217.787 189.437 218.105 189.105 218.338 188.676C218.571 188.237 218.688 187.729 218.688 187.15ZM222.787 182.082C222.544 182.082 222.339 181.998 222.171 181.83C222.003 181.662 221.919 181.457 221.919 181.214C221.919 180.971 222.003 180.766 222.171 180.598C222.339 180.43 222.544 180.346 222.787 180.346C223.02 180.346 223.216 180.43 223.375 180.598C223.543 180.766 223.627 180.971 223.627 181.214C223.627 181.457 223.543 181.662 223.375 181.83C223.216 181.998 223.02 182.082 222.787 182.082ZM223.403 183.328V191H222.129V183.328H223.403ZM228.29 191.126C227.702 191.126 227.175 191.028 226.708 190.832C226.241 190.627 225.873 190.347 225.602 189.992C225.331 189.628 225.182 189.213 225.154 188.746H226.47C226.507 189.129 226.685 189.441 227.002 189.684C227.329 189.927 227.753 190.048 228.276 190.048C228.761 190.048 229.144 189.941 229.424 189.726C229.704 189.511 229.844 189.241 229.844 188.914C229.844 188.578 229.695 188.331 229.396 188.172C229.097 188.004 228.635 187.841 228.01 187.682C227.441 187.533 226.974 187.383 226.61 187.234C226.255 187.075 225.947 186.847 225.686 186.548C225.434 186.24 225.308 185.839 225.308 185.344C225.308 184.952 225.425 184.593 225.658 184.266C225.891 183.939 226.223 183.683 226.652 183.496C227.081 183.3 227.571 183.202 228.122 183.202C228.971 183.202 229.657 183.417 230.18 183.846C230.703 184.275 230.983 184.863 231.02 185.61H229.746C229.718 185.209 229.555 184.887 229.256 184.644C228.967 184.401 228.575 184.28 228.08 184.28C227.623 184.28 227.259 184.378 226.988 184.574C226.717 184.77 226.582 185.027 226.582 185.344C226.582 185.596 226.661 185.806 226.82 185.974C226.988 186.133 227.193 186.263 227.436 186.366C227.688 186.459 228.033 186.567 228.472 186.688C229.023 186.837 229.471 186.987 229.816 187.136C230.161 187.276 230.455 187.491 230.698 187.78C230.95 188.069 231.081 188.447 231.09 188.914C231.09 189.334 230.973 189.712 230.74 190.048C230.507 190.384 230.175 190.65 229.746 190.846C229.326 191.033 228.841 191.126 228.29 191.126ZM235.605 191.126C235.017 191.126 234.489 191.028 234.023 190.832C233.556 190.627 233.187 190.347 232.917 189.992C232.646 189.628 232.497 189.213 232.469 188.746H233.785C233.822 189.129 233.999 189.441 234.317 189.684C234.643 189.927 235.068 190.048 235.591 190.048C236.076 190.048 236.459 189.941 236.739 189.726C237.019 189.511 237.159 189.241 237.159 188.914C237.159 188.578 237.009 188.331 236.711 188.172C236.412 188.004 235.95 187.841 235.325 187.682C234.755 187.533 234.289 187.383 233.925 187.234C233.57 187.075 233.262 186.847 233.001 186.548C232.749 186.24 232.623 185.839 232.623 185.344C232.623 184.952 232.739 184.593 232.973 184.266C233.206 183.939 233.537 183.683 233.967 183.496C234.396 183.3 234.886 183.202 235.437 183.202C236.286 183.202 236.972 183.417 237.495 183.846C238.017 184.275 238.297 184.863 238.335 185.61H237.061C237.033 185.209 236.869 184.887 236.571 184.644C236.281 184.401 235.889 184.28 235.395 184.28C234.937 184.28 234.573 184.378 234.303 184.574C234.032 184.77 233.897 185.027 233.897 185.344C233.897 185.596 233.976 185.806 234.135 185.974C234.303 186.133 234.508 186.263 234.751 186.366C235.003 186.459 235.348 186.567 235.787 186.688C236.337 186.837 236.785 186.987 237.131 187.136C237.476 187.276 237.77 187.491 238.013 187.78C238.265 188.069 238.395 188.447 238.405 188.914C238.405 189.334 238.288 189.712 238.055 190.048C237.821 190.384 237.49 190.65 237.061 190.846C236.641 191.033 236.155 191.126 235.605 191.126ZM247.203 186.87C247.203 187.113 247.189 187.369 247.161 187.64H241.029C241.076 188.396 241.332 188.989 241.799 189.418C242.275 189.838 242.849 190.048 243.521 190.048C244.072 190.048 244.529 189.922 244.893 189.67C245.266 189.409 245.528 189.063 245.677 188.634H247.049C246.844 189.371 246.433 189.973 245.817 190.44C245.201 190.897 244.436 191.126 243.521 191.126C242.793 191.126 242.14 190.963 241.561 190.636C240.992 190.309 240.544 189.847 240.217 189.25C239.89 188.643 239.727 187.943 239.727 187.15C239.727 186.357 239.886 185.661 240.203 185.064C240.52 184.467 240.964 184.009 241.533 183.692C242.112 183.365 242.774 183.202 243.521 183.202C244.249 183.202 244.893 183.361 245.453 183.678C246.013 183.995 246.442 184.434 246.741 184.994C247.049 185.545 247.203 186.17 247.203 186.87ZM245.887 186.604C245.887 186.119 245.78 185.703 245.565 185.358C245.35 185.003 245.056 184.737 244.683 184.56C244.319 184.373 243.913 184.28 243.465 184.28C242.821 184.28 242.27 184.485 241.813 184.896C241.365 185.307 241.108 185.876 241.043 186.604H245.887ZM255.473 189.824L257.853 183.328H259.211L256.201 191H254.717L251.707 183.328H253.079L255.473 189.824ZM259.989 187.136C259.989 186.352 260.147 185.666 260.465 185.078C260.782 184.481 261.216 184.019 261.767 183.692C262.327 183.365 262.947 183.202 263.629 183.202C264.301 183.202 264.884 183.347 265.379 183.636C265.873 183.925 266.242 184.289 266.485 184.728V183.328H267.773V191H266.485V189.572C266.233 190.02 265.855 190.393 265.351 190.692C264.856 190.981 264.277 191.126 263.615 191.126C262.933 191.126 262.317 190.958 261.767 190.622C261.216 190.286 260.782 189.815 260.465 189.208C260.147 188.601 259.989 187.911 259.989 187.136ZM266.485 187.15C266.485 186.571 266.368 186.067 266.135 185.638C265.901 185.209 265.584 184.882 265.183 184.658C264.791 184.425 264.357 184.308 263.881 184.308C263.405 184.308 262.971 184.42 262.579 184.644C262.187 184.868 261.874 185.195 261.641 185.624C261.407 186.053 261.291 186.557 261.291 187.136C261.291 187.724 261.407 188.237 261.641 188.676C261.874 189.105 262.187 189.437 262.579 189.67C262.971 189.894 263.405 190.006 263.881 190.006C264.357 190.006 264.791 189.894 265.183 189.67C265.584 189.437 265.901 189.105 266.135 188.676C266.368 188.237 266.485 187.729 266.485 187.15ZM271.2 184.574C271.424 184.135 271.741 183.795 272.152 183.552C272.572 183.309 273.08 183.188 273.678 183.188V184.504H273.342C271.914 184.504 271.2 185.279 271.2 186.828V191H269.926V183.328H271.2V184.574ZM275.806 182.082C275.564 182.082 275.358 181.998 275.19 181.83C275.022 181.662 274.938 181.457 274.938 181.214C274.938 180.971 275.022 180.766 275.19 180.598C275.358 180.43 275.564 180.346 275.806 180.346C276.04 180.346 276.236 180.43 276.394 180.598C276.562 180.766 276.646 180.971 276.646 181.214C276.646 181.457 276.562 181.662 276.394 181.83C276.236 181.998 276.04 182.082 275.806 182.082ZM276.422 183.328V191H275.148V183.328H276.422ZM285.398 183.328V191H284.124V189.866C283.881 190.258 283.54 190.566 283.102 190.79C282.672 191.005 282.196 191.112 281.674 191.112C281.076 191.112 280.54 190.991 280.064 190.748C279.588 190.496 279.21 190.123 278.93 189.628C278.659 189.133 278.524 188.531 278.524 187.822V183.328H279.784V187.654C279.784 188.41 279.975 188.993 280.358 189.404C280.74 189.805 281.263 190.006 281.926 190.006C282.607 190.006 283.144 189.796 283.536 189.376C283.928 188.956 284.124 188.345 284.124 187.542V183.328H285.398ZM290.265 191.126C289.677 191.126 289.149 191.028 288.683 190.832C288.216 190.627 287.847 190.347 287.577 189.992C287.306 189.628 287.157 189.213 287.129 188.746H288.445C288.482 189.129 288.659 189.441 288.977 189.684C289.303 189.927 289.728 190.048 290.251 190.048C290.736 190.048 291.119 189.941 291.399 189.726C291.679 189.511 291.819 189.241 291.819 188.914C291.819 188.578 291.669 188.331 291.371 188.172C291.072 188.004 290.61 187.841 289.985 187.682C289.415 187.533 288.949 187.383 288.585 187.234C288.23 187.075 287.922 186.847 287.661 186.548C287.409 186.24 287.283 185.839 287.283 185.344C287.283 184.952 287.399 184.593 287.633 184.266C287.866 183.939 288.197 183.683 288.627 183.496C289.056 183.3 289.546 183.202 290.097 183.202C290.946 183.202 291.632 183.417 292.155 183.846C292.677 184.275 292.957 184.863 292.995 185.61H291.721C291.693 185.209 291.529 184.887 291.231 184.644C290.941 184.401 290.549 184.28 290.055 184.28C289.597 184.28 289.233 184.378 288.963 184.574C288.692 184.77 288.557 185.027 288.557 185.344C288.557 185.596 288.636 185.806 288.795 185.974C288.963 186.133 289.168 186.263 289.411 186.366C289.663 186.459 290.008 186.567 290.447 186.688C290.997 186.837 291.445 186.987 291.791 187.136C292.136 187.276 292.43 187.491 292.673 187.78C292.925 188.069 293.055 188.447 293.065 188.914C293.065 189.334 292.948 189.712 292.715 190.048C292.481 190.384 292.15 190.65 291.721 190.846C291.301 191.033 290.815 191.126 290.265 191.126ZM305.596 186.87C305.596 187.113 305.582 187.369 305.554 187.64H299.422C299.468 188.396 299.725 188.989 300.192 189.418C300.668 189.838 301.242 190.048 301.914 190.048C302.464 190.048 302.922 189.922 303.286 189.67C303.659 189.409 303.92 189.063 304.07 188.634H305.442C305.236 189.371 304.826 189.973 304.21 190.44C303.594 190.897 302.828 191.126 301.914 191.126C301.186 191.126 300.532 190.963 299.954 190.636C299.384 190.309 298.936 189.847 298.61 189.25C298.283 188.643 298.12 187.943 298.12 187.15C298.12 186.357 298.278 185.661 298.596 185.064C298.913 184.467 299.356 184.009 299.926 183.692C300.504 183.365 301.167 183.202 301.914 183.202C302.642 183.202 303.286 183.361 303.846 183.678C304.406 183.995 304.835 184.434 305.134 184.994C305.442 185.545 305.596 186.17 305.596 186.87ZM304.28 186.604C304.28 186.119 304.172 185.703 303.958 185.358C303.743 185.003 303.449 184.737 303.076 184.56C302.712 184.373 302.306 184.28 301.858 184.28C301.214 184.28 300.663 184.485 300.206 184.896C299.758 185.307 299.501 185.876 299.436 186.604H304.28ZM311.015 183.188C311.949 183.188 312.705 183.473 313.283 184.042C313.862 184.602 314.151 185.414 314.151 186.478V191H312.891V186.66C312.891 185.895 312.7 185.311 312.317 184.91C311.935 184.499 311.412 184.294 310.749 184.294C310.077 184.294 309.541 184.504 309.139 184.924C308.747 185.344 308.551 185.955 308.551 186.758V191H307.277V183.328H308.551V184.42C308.803 184.028 309.144 183.725 309.573 183.51C310.012 183.295 310.493 183.188 311.015 183.188ZM316.89 182.082C316.648 182.082 316.442 181.998 316.274 181.83C316.106 181.662 316.022 181.457 316.022 181.214C316.022 180.971 316.106 180.766 316.274 180.598C316.442 180.43 316.648 180.346 316.89 180.346C317.124 180.346 317.32 180.43 317.478 180.598C317.646 180.766 317.73 180.971 317.73 181.214C317.73 181.457 317.646 181.662 317.478 181.83C317.32 181.998 317.124 182.082 316.89 182.082ZM317.506 183.328V191H316.232V183.328H317.506ZM328.904 183.188C329.501 183.188 330.033 183.314 330.5 183.566C330.966 183.809 331.335 184.177 331.606 184.672C331.876 185.167 332.012 185.769 332.012 186.478V191H330.752V186.66C330.752 185.895 330.56 185.311 330.178 184.91C329.804 184.499 329.296 184.294 328.652 184.294C327.989 184.294 327.462 184.509 327.07 184.938C326.678 185.358 326.482 185.969 326.482 186.772V191H325.222V186.66C325.222 185.895 325.03 185.311 324.648 184.91C324.274 184.499 323.766 184.294 323.122 184.294C322.459 184.294 321.932 184.509 321.54 184.938C321.148 185.358 320.952 185.969 320.952 186.772V191H319.678V183.328H320.952V184.434C321.204 184.033 321.54 183.725 321.96 183.51C322.389 183.295 322.86 183.188 323.374 183.188C324.018 183.188 324.587 183.333 325.082 183.622C325.576 183.911 325.945 184.336 326.188 184.896C326.402 184.355 326.757 183.935 327.252 183.636C327.746 183.337 328.297 183.188 328.904 183.188ZM98.8444 202.082C98.6017 202.082 98.3964 201.998 98.2284 201.83C98.0604 201.662 97.9764 201.457 97.9764 201.214C97.9764 200.971 98.0604 200.766 98.2284 200.598C98.3964 200.43 98.6017 200.346 98.8444 200.346C99.0777 200.346 99.2737 200.43 99.4324 200.598C99.6004 200.766 99.6844 200.971 99.6844 201.214C99.6844 201.457 99.6004 201.662 99.4324 201.83C99.2737 201.998 99.0777 202.082 98.8444 202.082ZM99.4604 203.328V211H98.1864V203.328H99.4604ZM105.37 203.188C106.303 203.188 107.059 203.473 107.638 204.042C108.216 204.602 108.506 205.414 108.506 206.478V211H107.246V206.66C107.246 205.895 107.054 205.311 106.672 204.91C106.289 204.499 105.766 204.294 105.104 204.294C104.432 204.294 103.895 204.504 103.494 204.924C103.102 205.344 102.906 205.955 102.906 206.758V211H101.632V203.328H102.906V204.42C103.158 204.028 103.498 203.725 103.928 203.51C104.366 203.295 104.847 203.188 105.37 203.188ZM121.319 206.87C121.319 207.113 121.305 207.369 121.277 207.64H115.145C115.192 208.396 115.449 208.989 115.915 209.418C116.391 209.838 116.965 210.048 117.637 210.048C118.188 210.048 118.645 209.922 119.009 209.67C119.383 209.409 119.644 209.063 119.793 208.634H121.165C120.96 209.371 120.549 209.973 119.933 210.44C119.317 210.897 118.552 211.126 117.637 211.126C116.909 211.126 116.256 210.963 115.677 210.636C115.108 210.309 114.66 209.847 114.333 209.25C114.007 208.643 113.843 207.943 113.843 207.15C113.843 206.357 114.002 205.661 114.319 205.064C114.637 204.467 115.08 204.009 115.649 203.692C116.228 203.365 116.891 203.202 117.637 203.202C118.365 203.202 119.009 203.361 119.569 203.678C120.129 203.995 120.559 204.434 120.857 204.994C121.165 205.545 121.319 206.17 121.319 206.87ZM120.003 206.604C120.003 206.119 119.896 205.703 119.681 205.358C119.467 205.003 119.173 204.737 118.799 204.56C118.435 204.373 118.029 204.28 117.581 204.28C116.937 204.28 116.387 204.485 115.929 204.896C115.481 205.307 115.225 205.876 115.159 206.604H120.003ZM124.275 204.574C124.499 204.135 124.816 203.795 125.227 203.552C125.647 203.309 126.156 203.188 126.753 203.188V204.504H126.417C124.989 204.504 124.275 205.279 124.275 206.828V211H123.001V203.328H124.275V204.574ZM131.57 211.126C130.851 211.126 130.198 210.963 129.61 210.636C129.031 210.309 128.574 209.847 128.238 209.25C127.911 208.643 127.748 207.943 127.748 207.15C127.748 206.366 127.916 205.675 128.252 205.078C128.597 204.471 129.064 204.009 129.652 203.692C130.24 203.365 130.898 203.202 131.626 203.202C132.354 203.202 133.012 203.365 133.6 203.692C134.188 204.009 134.65 204.467 134.986 205.064C135.331 205.661 135.504 206.357 135.504 207.15C135.504 207.943 135.326 208.643 134.972 209.25C134.626 209.847 134.155 210.309 133.558 210.636C132.96 210.963 132.298 211.126 131.57 211.126ZM131.57 210.006C132.027 210.006 132.456 209.899 132.858 209.684C133.259 209.469 133.581 209.147 133.824 208.718C134.076 208.289 134.202 207.766 134.202 207.15C134.202 206.534 134.08 206.011 133.838 205.582C133.595 205.153 133.278 204.835 132.886 204.63C132.494 204.415 132.069 204.308 131.612 204.308C131.145 204.308 130.716 204.415 130.324 204.63C129.941 204.835 129.633 205.153 129.4 205.582C129.166 206.011 129.05 206.534 129.05 207.15C129.05 207.775 129.162 208.303 129.386 208.732C129.619 209.161 129.927 209.483 130.31 209.698C130.692 209.903 131.112 210.006 131.57 210.006ZM139.895 211.126C139.307 211.126 138.779 211.028 138.313 210.832C137.846 210.627 137.477 210.347 137.207 209.992C136.936 209.628 136.787 209.213 136.759 208.746H138.075C138.112 209.129 138.289 209.441 138.607 209.684C138.933 209.927 139.358 210.048 139.881 210.048C140.366 210.048 140.749 209.941 141.029 209.726C141.309 209.511 141.449 209.241 141.449 208.914C141.449 208.578 141.299 208.331 141.001 208.172C140.702 208.004 140.24 207.841 139.615 207.682C139.045 207.533 138.579 207.383 138.215 207.234C137.86 207.075 137.552 206.847 137.291 206.548C137.039 206.24 136.913 205.839 136.913 205.344C136.913 204.952 137.029 204.593 137.263 204.266C137.496 203.939 137.827 203.683 138.257 203.496C138.686 203.3 139.176 203.202 139.727 203.202C140.576 203.202 141.262 203.417 141.785 203.846C142.307 204.275 142.587 204.863 142.625 205.61H141.351C141.323 205.209 141.159 204.887 140.861 204.644C140.571 204.401 140.179 204.28 139.685 204.28C139.227 204.28 138.863 204.378 138.593 204.574C138.322 204.77 138.187 205.027 138.187 205.344C138.187 205.596 138.266 205.806 138.425 205.974C138.593 206.133 138.798 206.263 139.041 206.366C139.293 206.459 139.638 206.567 140.077 206.688C140.627 206.837 141.075 206.987 141.421 207.136C141.766 207.276 142.06 207.491 142.303 207.78C142.555 208.069 142.685 208.447 142.695 208.914C142.695 209.334 142.578 209.712 142.345 210.048C142.111 210.384 141.78 210.65 141.351 210.846C140.931 211.033 140.445 211.126 139.895 211.126ZM155.225 206.87C155.225 207.113 155.211 207.369 155.183 207.64H149.051C149.098 208.396 149.355 208.989 149.821 209.418C150.297 209.838 150.871 210.048 151.543 210.048C152.094 210.048 152.551 209.922 152.915 209.67C153.289 209.409 153.55 209.063 153.699 208.634H155.071C154.866 209.371 154.455 209.973 153.839 210.44C153.223 210.897 152.458 211.126 151.543 211.126C150.815 211.126 150.162 210.963 149.583 210.636C149.014 210.309 148.566 209.847 148.239 209.25C147.913 208.643 147.749 207.943 147.749 207.15C147.749 206.357 147.908 205.661 148.225 205.064C148.543 204.467 148.986 204.009 149.555 203.692C150.134 203.365 150.797 203.202 151.543 203.202C152.271 203.202 152.915 203.361 153.475 203.678C154.035 203.995 154.465 204.434 154.763 204.994C155.071 205.545 155.225 206.17 155.225 206.87ZM153.909 206.604C153.909 206.119 153.802 205.703 153.587 205.358C153.373 205.003 153.079 204.737 152.705 204.56C152.341 204.373 151.935 204.28 151.487 204.28C150.843 204.28 150.293 204.485 149.835 204.896C149.387 205.307 149.131 205.876 149.065 206.604H153.909ZM158.181 200.64V211H156.907V200.64H158.181ZM167.352 206.87C167.352 207.113 167.338 207.369 167.31 207.64H161.178C161.225 208.396 161.482 208.989 161.948 209.418C162.424 209.838 162.998 210.048 163.67 210.048C164.221 210.048 164.678 209.922 165.042 209.67C165.416 209.409 165.677 209.063 165.826 208.634H167.198C166.993 209.371 166.582 209.973 165.966 210.44C165.35 210.897 164.585 211.126 163.67 211.126C162.942 211.126 162.289 210.963 161.71 210.636C161.141 210.309 160.693 209.847 160.366 209.25C160.04 208.643 159.876 207.943 159.876 207.15C159.876 206.357 160.035 205.661 160.352 205.064C160.67 204.467 161.113 204.009 161.682 203.692C162.261 203.365 162.924 203.202 163.67 203.202C164.398 203.202 165.042 203.361 165.602 203.678C166.162 203.995 166.592 204.434 166.89 204.994C167.198 205.545 167.352 206.17 167.352 206.87ZM166.036 206.604C166.036 206.119 165.929 205.703 165.714 205.358C165.5 205.003 165.206 204.737 164.832 204.56C164.468 204.373 164.062 204.28 163.614 204.28C162.97 204.28 162.42 204.485 161.962 204.896C161.514 205.307 161.258 205.876 161.192 206.604H166.036ZM178.26 203.188C178.857 203.188 179.389 203.314 179.856 203.566C180.323 203.809 180.691 204.177 180.962 204.672C181.233 205.167 181.368 205.769 181.368 206.478V211H180.108V206.66C180.108 205.895 179.917 205.311 179.534 204.91C179.161 204.499 178.652 204.294 178.008 204.294C177.345 204.294 176.818 204.509 176.426 204.938C176.034 205.358 175.838 205.969 175.838 206.772V211H174.578V206.66C174.578 205.895 174.387 205.311 174.004 204.91C173.631 204.499 173.122 204.294 172.478 204.294C171.815 204.294 171.288 204.509 170.896 204.938C170.504 205.358 170.308 205.969 170.308 206.772V211H169.034V203.328H170.308V204.434C170.56 204.033 170.896 203.725 171.316 203.51C171.745 203.295 172.217 203.188 172.73 203.188C173.374 203.188 173.943 203.333 174.438 203.622C174.933 203.911 175.301 204.336 175.544 204.896C175.759 204.355 176.113 203.935 176.608 203.636C177.103 203.337 177.653 203.188 178.26 203.188ZM190.458 206.87C190.458 207.113 190.444 207.369 190.416 207.64H184.284C184.331 208.396 184.587 208.989 185.054 209.418C185.53 209.838 186.104 210.048 186.776 210.048C187.327 210.048 187.784 209.922 188.148 209.67C188.521 209.409 188.783 209.063 188.932 208.634H190.304C190.099 209.371 189.688 209.973 189.072 210.44C188.456 210.897 187.691 211.126 186.776 211.126C186.048 211.126 185.395 210.963 184.816 210.636C184.247 210.309 183.799 209.847 183.472 209.25C183.145 208.643 182.982 207.943 182.982 207.15C182.982 206.357 183.141 205.661 183.458 205.064C183.775 204.467 184.219 204.009 184.788 203.692C185.367 203.365 186.029 203.202 186.776 203.202C187.504 203.202 188.148 203.361 188.708 203.678C189.268 203.995 189.697 204.434 189.996 204.994C190.304 205.545 190.458 206.17 190.458 206.87ZM189.142 206.604C189.142 206.119 189.035 205.703 188.82 205.358C188.605 205.003 188.311 204.737 187.938 204.56C187.574 204.373 187.168 204.28 186.72 204.28C186.076 204.28 185.525 204.485 185.068 204.896C184.62 205.307 184.363 205.876 184.298 206.604H189.142ZM195.878 203.188C196.811 203.188 197.567 203.473 198.146 204.042C198.724 204.602 199.014 205.414 199.014 206.478V211H197.754V206.66C197.754 205.895 197.562 205.311 197.18 204.91C196.797 204.499 196.274 204.294 195.612 204.294C194.94 204.294 194.403 204.504 194.002 204.924C193.61 205.344 193.414 205.955 193.414 206.758V211H192.14V203.328H193.414V204.42C193.666 204.028 194.006 203.725 194.436 203.51C194.874 203.295 195.355 203.188 195.878 203.188ZM202.649 204.378V208.9C202.649 209.273 202.728 209.539 202.887 209.698C203.045 209.847 203.321 209.922 203.713 209.922H204.651V211H203.503C202.793 211 202.261 210.837 201.907 210.51C201.552 210.183 201.375 209.647 201.375 208.9V204.378H200.381V203.328H201.375V201.396H202.649V203.328H204.651V204.378H202.649ZM212.998 203.328V211H211.724V209.866C211.482 210.258 211.141 210.566 210.702 210.79C210.273 211.005 209.797 211.112 209.274 211.112C208.677 211.112 208.14 210.991 207.664 210.748C207.188 210.496 206.81 210.123 206.53 209.628C206.26 209.133 206.124 208.531 206.124 207.822V203.328H207.384V207.654C207.384 208.41 207.576 208.993 207.958 209.404C208.341 209.805 208.864 210.006 209.526 210.006C210.208 210.006 210.744 209.796 211.136 209.376C211.528 208.956 211.724 208.345 211.724 207.542V203.328H212.998ZM224.375 203.188C224.973 203.188 225.505 203.314 225.971 203.566C226.438 203.809 226.807 204.177 227.077 204.672C227.348 205.167 227.483 205.769 227.483 206.478V211H226.223V206.66C226.223 205.895 226.032 205.311 225.649 204.91C225.276 204.499 224.767 204.294 224.123 204.294C223.461 204.294 222.933 204.509 222.541 204.938C222.149 205.358 221.953 205.969 221.953 206.772V211H220.693V206.66C220.693 205.895 220.502 205.311 220.119 204.91C219.746 204.499 219.237 204.294 218.593 204.294C217.931 204.294 217.403 204.509 217.011 204.938C216.619 205.358 216.423 205.969 216.423 206.772V211H215.149V203.328H216.423V204.434C216.675 204.033 217.011 203.725 217.431 203.51C217.861 203.295 218.332 203.188 218.845 203.188C219.489 203.188 220.059 203.333 220.553 203.622C221.048 203.911 221.417 204.336 221.659 204.896C221.874 204.355 222.229 203.935 222.723 203.636C223.218 203.337 223.769 203.188 224.375 203.188ZM234.86 204.378V208.9C234.86 209.273 234.939 209.539 235.098 209.698C235.256 209.847 235.532 209.922 235.924 209.922H236.862V211H235.714C235.004 211 234.472 210.837 234.118 210.51C233.763 210.183 233.586 209.647 233.586 208.9V204.378H232.592V203.328H233.586V201.396H234.86V203.328H236.862V204.378H234.86ZM239.679 204.574C239.903 204.135 240.22 203.795 240.631 203.552C241.051 203.309 241.56 203.188 242.157 203.188V204.504H241.821C240.393 204.504 239.679 205.279 239.679 206.828V211H238.405V203.328H239.679V204.574ZM244.286 202.082C244.043 202.082 243.838 201.998 243.67 201.83C243.502 201.662 243.418 201.457 243.418 201.214C243.418 200.971 243.502 200.766 243.67 200.598C243.838 200.43 244.043 200.346 244.286 200.346C244.519 200.346 244.715 200.43 244.874 200.598C245.042 200.766 245.126 200.971 245.126 201.214C245.126 201.457 245.042 201.662 244.874 201.83C244.715 201.998 244.519 202.082 244.286 202.082ZM244.902 203.328V211H243.628V203.328H244.902ZM249.789 211.126C249.201 211.126 248.674 211.028 248.207 210.832C247.74 210.627 247.372 210.347 247.101 209.992C246.83 209.628 246.681 209.213 246.653 208.746H247.969C248.006 209.129 248.184 209.441 248.501 209.684C248.828 209.927 249.252 210.048 249.775 210.048C250.26 210.048 250.643 209.941 250.923 209.726C251.203 209.511 251.343 209.241 251.343 208.914C251.343 208.578 251.194 208.331 250.895 208.172C250.596 208.004 250.134 207.841 249.509 207.682C248.94 207.533 248.473 207.383 248.109 207.234C247.754 207.075 247.446 206.847 247.185 206.548C246.933 206.24 246.807 205.839 246.807 205.344C246.807 204.952 246.924 204.593 247.157 204.266C247.39 203.939 247.722 203.683 248.151 203.496C248.58 203.3 249.07 203.202 249.621 203.202C250.47 203.202 251.156 203.417 251.679 203.846C252.202 204.275 252.482 204.863 252.519 205.61H251.245C251.217 205.209 251.054 204.887 250.755 204.644C250.466 204.401 250.074 204.28 249.579 204.28C249.122 204.28 248.758 204.378 248.487 204.574C248.216 204.77 248.081 205.027 248.081 205.344C248.081 205.596 248.16 205.806 248.319 205.974C248.487 206.133 248.692 206.263 248.935 206.366C249.187 206.459 249.532 206.567 249.971 206.688C250.522 206.837 250.97 206.987 251.315 207.136C251.66 207.276 251.954 207.491 252.197 207.78C252.449 208.069 252.58 208.447 252.589 208.914C252.589 209.334 252.472 209.712 252.239 210.048C252.006 210.384 251.674 210.65 251.245 210.846C250.825 211.033 250.34 211.126 249.789 211.126ZM255.942 204.378V208.9C255.942 209.273 256.021 209.539 256.18 209.698C256.338 209.847 256.614 209.922 257.006 209.922H257.944V211H256.796C256.086 211 255.554 210.837 255.2 210.51C254.845 210.183 254.668 209.647 254.668 208.9V204.378H253.674V203.328H254.668V201.396H255.942V203.328H257.944V204.378H255.942ZM260.145 202.082C259.903 202.082 259.697 201.998 259.529 201.83C259.361 201.662 259.277 201.457 259.277 201.214C259.277 200.971 259.361 200.766 259.529 200.598C259.697 200.43 259.903 200.346 260.145 200.346C260.379 200.346 260.575 200.43 260.733 200.598C260.901 200.766 260.985 200.971 260.985 201.214C260.985 201.457 260.901 201.662 260.733 201.83C260.575 201.998 260.379 202.082 260.145 202.082ZM260.761 203.328V211H259.487V203.328H260.761ZM262.456 207.136C262.456 206.352 262.615 205.666 262.932 205.078C263.25 204.481 263.684 204.019 264.234 203.692C264.794 203.365 265.42 203.202 266.11 203.202C266.773 203.202 267.352 203.351 267.846 203.65C268.35 203.939 268.719 204.299 268.952 204.728V203.328H270.24V214.64H268.952V209.586C268.71 210.015 268.336 210.379 267.832 210.678C267.328 210.977 266.74 211.126 266.068 211.126C265.396 211.126 264.785 210.958 264.234 210.622C263.684 210.286 263.25 209.815 262.932 209.208C262.615 208.601 262.456 207.911 262.456 207.136ZM268.952 207.15C268.952 206.571 268.836 206.067 268.602 205.638C268.369 205.209 268.052 204.882 267.65 204.658C267.258 204.425 266.824 204.308 266.348 204.308C265.872 204.308 265.438 204.42 265.046 204.644C264.654 204.868 264.342 205.195 264.108 205.624C263.875 206.053 263.758 206.557 263.758 207.136C263.758 207.724 263.875 208.237 264.108 208.676C264.342 209.105 264.654 209.437 265.046 209.67C265.438 209.894 265.872 210.006 266.348 210.006C266.824 210.006 267.258 209.894 267.65 209.67C268.052 209.437 268.369 209.105 268.602 208.676C268.836 208.237 268.952 207.729 268.952 207.15ZM279.197 203.328V211H277.923V209.866C277.681 210.258 277.34 210.566 276.901 210.79C276.472 211.005 275.996 211.112 275.473 211.112C274.876 211.112 274.339 210.991 273.863 210.748C273.387 210.496 273.009 210.123 272.729 209.628C272.459 209.133 272.323 208.531 272.323 207.822V203.328H273.583V207.654C273.583 208.41 273.775 208.993 274.157 209.404C274.54 209.805 275.063 210.006 275.725 210.006C276.407 210.006 276.943 209.796 277.335 209.376C277.727 208.956 277.923 208.345 277.923 207.542V203.328H279.197ZM288.349 206.87C288.349 207.113 288.335 207.369 288.307 207.64H282.175C282.221 208.396 282.478 208.989 282.945 209.418C283.421 209.838 283.995 210.048 284.667 210.048C285.217 210.048 285.675 209.922 286.039 209.67C286.412 209.409 286.673 209.063 286.823 208.634H288.195C287.989 209.371 287.579 209.973 286.963 210.44C286.347 210.897 285.581 211.126 284.667 211.126C283.939 211.126 283.285 210.963 282.707 210.636C282.137 210.309 281.689 209.847 281.363 209.25C281.036 208.643 280.873 207.943 280.873 207.15C280.873 206.357 281.031 205.661 281.349 205.064C281.666 204.467 282.109 204.009 282.679 203.692C283.257 203.365 283.92 203.202 284.667 203.202C285.395 203.202 286.039 203.361 286.599 203.678C287.159 203.995 287.588 204.434 287.887 204.994C288.195 205.545 288.349 206.17 288.349 206.87ZM287.033 206.604C287.033 206.119 286.925 205.703 286.711 205.358C286.496 205.003 286.202 204.737 285.829 204.56C285.465 204.373 285.059 204.28 284.611 204.28C283.967 204.28 283.416 204.485 282.959 204.896C282.511 205.307 282.254 205.876 282.189 206.604H287.033ZM290.436 211.084C290.193 211.084 289.988 211 289.82 210.832C289.652 210.664 289.568 210.459 289.568 210.216C289.568 209.973 289.652 209.768 289.82 209.6C289.988 209.432 290.193 209.348 290.436 209.348C290.669 209.348 290.865 209.432 291.024 209.6C291.192 209.768 291.276 209.973 291.276 210.216C291.276 210.459 291.192 210.664 291.024 210.832C290.865 211 290.669 211.084 290.436 211.084Z" fill="#575445"/>
</svg>
